<?xml version="1.0" encoding="utf-8"?>
<!-- Generator: Adobe Illustrator 19.2.0, SVG Export Plug-In . SVG Version: 6.00 Build 0)  -->
<svg version="1.1" id="Layer_1" xmlns="http://www.w3.org/2000/svg" xmlns:xlink="http://www.w3.org/1999/xlink" x="0px" y="0px"
	 viewBox="0 0 40 40" style="enable-background:new 0 0 40 40;" xml:space="preserve">
<style type="text/css">
	.st0{fill:#FFFFFF;}
</style>
<g>
	<path class="st0" d="M11.9,15h2.2L13,19h4.1l1.1-4h2.2l-2.7,10.1h-2.2l1.1-4.1h-4.1l-1.1,4.1H9.2L11.9,15z"/>
	<path class="st0" d="M22.8,15h3c2,0,3.2,0.5,4,1.3c0.8,0.8,1.1,1.7,1.1,3c0,1.5-0.6,2.9-1.7,4c-1.2,1.2-3,1.9-5.3,1.9h-3.8L22.8,15
		z M24.1,23.2c1.3,0,2.6-0.4,3.4-1.2c0.7-0.7,1-1.5,1-2.5c0-0.7-0.2-1.2-0.6-1.6c-0.4-0.4-1.2-0.7-2.3-0.7h-1.1l-1.6,6.1H24.1z"/>
</g>
</svg>
