<svg id="fb034dda-a610-49c7-aae5-e740e3b6714c" data-name="Layer 1" xmlns="http://www.w3.org/2000/svg" viewBox="0 0 542.95 542.95"><title>EndFrameVectors-02</title><path d="M139.77,44.87l-4.24-7.34-0.84.49,4.24,7.34Z" transform="translate(0.63 -1.4)" style="fill:#fff"/><path d="M131.9,49.59L127.4,42.4l-0.83.52,4.49,7.19Z" transform="translate(0.63 -1.4)" style="fill:#fff"/><path d="M147.82,40.46l-4-7.51-0.86.46,4,7.51Z" transform="translate(0.63 -1.4)" style="fill:#fff"/><path d="M164.35,32.47l-3.47-7.8-0.89.4,3.47,7.79Z" transform="translate(0.63 -1.4)" style="fill:#fff"/><path d="M156,36.31l-3.73-7.64-0.88.43,3.73,7.65Z" transform="translate(0.63 -1.4)" style="fill:#fff"/><path d="M124.18,54.56l-4.73-7-0.81.54,4.73,7Z" transform="translate(0.63 -1.4)" style="fill:#fff"/><path d="M102.14,71.07L96.72,64.6,96,65.23l5.43,6.47Z" transform="translate(0.63 -1.4)" style="fill:#fff"/><path d="M95.2,77.07l-5.64-6.27-0.72.65,5.64,6.26Z" transform="translate(0.63 -1.4)" style="fill:#fff"/><path d="M116.65,59.81l-5-6.84-0.79.57,5,6.84Z" transform="translate(0.63 -1.4)" style="fill:#fff"/><path d="M109.3,65.31l-5.2-6.66-0.77.6,5.2,6.65Z" transform="translate(0.63 -1.4)" style="fill:#fff"/><path d="M234.77,12.68L233.55,4l-1,.14,1.22,8.7Z" transform="translate(0.63 -1.4)" style="fill:#fff"/><path d="M88.46,83.31l-5.84-6.05-0.7.68L87.76,84Z" transform="translate(0.63 -1.4)" style="fill:#fff"/><path d="M172.81,28.91L169.6,21l-0.9.37,3.2,7.93Z" transform="translate(0.63 -1.4)" style="fill:#fff"/><path d="M243.88,11.61L243,2.84l-1,.1,0.92,8.76Z" transform="translate(0.63 -1.4)" style="fill:#fff"/><path d="M253,10.88L252.4,2l-1,.07L252,10.95Z" transform="translate(0.63 -1.4)" style="fill:#fff"/><path d="M216.69,15.74l-1.81-8.5-1,.2,1.81,8.51Z" transform="translate(0.63 -1.4)" style="fill:#fff"/><path d="M225.71,14.06l-1.52-8.61-1,.17,1.52,8.6Z" transform="translate(0.63 -1.4)" style="fill:#fff"/><path d="M7.85,272.39H-0.63v1H7.86C7.86,273,7.85,272.72,7.85,272.39Z" transform="translate(0.63 -1.4)" style="fill:#fff"/><path d="M190.08,22.72l-2.66-8.18-0.93.3L189.15,23Z" transform="translate(0.63 -1.4)" style="fill:#fff"/><path d="M207.74,17.76l-2.1-8.41-0.95.24L206.8,18Z" transform="translate(0.63 -1.4)" style="fill:#fff"/><path d="M262.17,10.45l-0.31-8.9-1,0,0.31,8.9Z" transform="translate(0.63 -1.4)" style="fill:#fff"/><path d="M198.87,20.08l-2.38-8.29-0.94.27,2.38,8.28Z" transform="translate(0.63 -1.4)" style="fill:#fff"/><path d="M18,199.87l-8-2.29-0.27.94,8,2.29Z" transform="translate(0.63 -1.4)" style="fill:#fff"/><path d="M15.64,208.75l-8.09-2-0.24.95,8.1,2Z" transform="translate(0.63 -1.4)" style="fill:#fff"/><path d="M20.72,191.1l-7.91-2.57-0.3.93L20.42,192Z" transform="translate(0.63 -1.4)" style="fill:#fff"/><path d="M13.58,217.7L5.41,216l-0.2,1,8.17,1.74C13.44,218.33,13.51,218,13.58,217.7Z" transform="translate(0.63 -1.4)" style="fill:#fff"/><path d="M23.7,182.41l-7.79-2.84-0.33.92,7.8,2.84C23.49,183,23.59,182.71,23.7,182.41Z" transform="translate(0.63 -1.4)" style="fill:#fff"/><path d="M27,173.84l-7.7-3.11-0.37.9,7.7,3.11Z" transform="translate(0.63 -1.4)" style="fill:#fff"/><path d="M8,263.21l-8.47-.3,0,1L8,264.19C8,263.86,8,263.54,8,263.21Z" transform="translate(0.63 -1.4)" style="fill:#fff"/><path d="M8.5,254l-8.43-.59-0.07,1L8.44,255C8.46,254.7,8.48,254.37,8.5,254Z" transform="translate(0.63 -1.4)" style="fill:#fff"/><path d="M9.28,244.9L0.91,244l-0.1,1,8.37,0.88C9.21,245.54,9.25,245.22,9.28,244.9Z" transform="translate(0.63 -1.4)" style="fill:#fff"/><path d="M82,89.79L75.9,83.95l-0.68.7,6,5.84Z" transform="translate(0.63 -1.4)" style="fill:#fff"/><path d="M10.4,235.78l-8.32-1.17-0.14,1,8.32,1.17Z" transform="translate(0.63 -1.4)" style="fill:#fff"/><path d="M11.82,226.71l-8.24-1.45-0.17,1,8.25,1.45C11.72,227.35,11.77,227,11.82,226.71Z" transform="translate(0.63 -1.4)" style="fill:#fff"/><path d="M63.81,110.5l-6.59-5.15-0.6.77,6.59,5.15Z" transform="translate(0.63 -1.4)" style="fill:#fff"/><path d="M58.27,117.83l-6.77-4.92-0.57.79,6.76,4.91Z" transform="translate(0.63 -1.4)" style="fill:#fff"/><path d="M53,125.33l-6.91-4.66-0.54.81,6.91,4.66Z" transform="translate(0.63 -1.4)" style="fill:#fff"/><path d="M69.63,103.4L63.2,98l-0.63.75L69,104.14Z" transform="translate(0.63 -1.4)" style="fill:#fff"/><path d="M75.66,96.48l-6.23-5.61-0.65.72L75,97.21Z" transform="translate(0.63 -1.4)" style="fill:#fff"/><path d="M43.19,140.88L36,136.72l-0.49.84,7.2,4.16Z" transform="translate(0.63 -1.4)" style="fill:#fff"/><path d="M34.53,157.08l-7.47-3.64-0.43.88,7.46,3.64Z" transform="translate(0.63 -1.4)" style="fill:#fff"/><path d="M38.72,148.9L31.38,145l-0.46.86,7.34,3.9Z" transform="translate(0.63 -1.4)" style="fill:#fff"/><path d="M30.62,165.39L23,162l-0.4.89,7.59,3.38Z" transform="translate(0.63 -1.4)" style="fill:#fff"/><path d="M48,133l-7.07-4.42-0.52.83,7.07,4.42Z" transform="translate(0.63 -1.4)" style="fill:#fff"/><path d="M181.39,25.67l-2.93-8.06-0.92.33,2.93,8Z" transform="translate(0.63 -1.4)" style="fill:#fff"/><path d="M271.34,10.35V1.4h-1v8.93h1Z" transform="translate(0.63 -1.4)" style="fill:#fff"/><path d="M459.44,91.44l7-6.79-0.68-.7-7,6.79Z" transform="translate(0.63 -1.4)" style="fill:#fff"/><path d="M497.56,142.55l8.64-5-0.49-.84-8.63,5Z" transform="translate(0.63 -1.4)" style="fill:#fff"/><path d="M506.06,158.7l9-4.39-0.43-.88-9,4.39Z" transform="translate(0.63 -1.4)" style="fill:#fff"/><path d="M509.87,167l9.19-4.09-0.4-.89-9.18,4.09Z" transform="translate(0.63 -1.4)" style="fill:#fff"/><path d="M477.29,112.21l7.79-6.08-0.6-.77-7.78,6.08Z" transform="translate(0.63 -1.4)" style="fill:#fff"/><path d="M471.58,105.08l7.54-6.33L478.5,98,471,104.34Z" transform="translate(0.63 -1.4)" style="fill:#fff"/><path d="M465.62,98.16l7.3-6.57-0.65-.72L465,97.43Z" transform="translate(0.63 -1.4)" style="fill:#fff"/><path d="M488,127l8.23-5.55-0.54-.81-8.22,5.55Z" transform="translate(0.63 -1.4)" style="fill:#fff"/><path d="M482.75,119.53l8-5.82-0.57-.79-8,5.82Z" transform="translate(0.63 -1.4)" style="fill:#fff"/><path d="M513.4,175.41l9.34-3.77-0.37-.9L513,174.51Z" transform="translate(0.63 -1.4)" style="fill:#fff"/><path d="M492.89,134.71l8.45-5.28-0.52-.83-8.45,5.28Z" transform="translate(0.63 -1.4)" style="fill:#fff"/><path d="M529.55,237l10.2-1.43-0.14-1L529.42,236C529.46,236.37,529.51,236.69,529.55,237Z" transform="translate(0.63 -1.4)" style="fill:#fff"/><path d="M530.63,246.07L540.89,245l-0.1-1-10.26,1.08Z" transform="translate(0.63 -1.4)" style="fill:#fff"/><path d="M531.8,264.26l10.38-.36,0-1-10.38.36C531.77,263.61,531.79,263.93,531.8,264.26Z" transform="translate(0.63 -1.4)" style="fill:#fff"/><path d="M528.18,228l10.11-1.78-0.17-1L528,227C528.07,227.36,528.12,227.68,528.18,228Z" transform="translate(0.63 -1.4)" style="fill:#fff"/><path d="M516.62,183.94l9.5-3.46-0.33-.92L516.3,183Z" transform="translate(0.63 -1.4)" style="fill:#fff"/><path d="M531.36,255.15l10.34-.72-0.07-1-10.33.72C531.32,254.5,531.34,254.83,531.36,255.15Z" transform="translate(0.63 -1.4)" style="fill:#fff"/><path d="M519.55,192.58l9.64-3.13-0.3-.93-9.64,3.13Z" transform="translate(0.63 -1.4)" style="fill:#fff"/><path d="M522.18,201.32l9.76-2.8-0.27-.94-9.75,2.8Z" transform="translate(0.63 -1.4)" style="fill:#fff"/><path d="M526.5,219l10-2.12-0.2-1-10,2.13C526.36,218.4,526.43,218.72,526.5,219Z" transform="translate(0.63 -1.4)" style="fill:#fff"/><path d="M524.48,210.14l9.9-2.47-0.24-.95-9.89,2.47Z" transform="translate(0.63 -1.4)" style="fill:#fff"/><path d="M501.94,150.56l8.84-4.7-0.46-.86-8.84,4.7Z" transform="translate(0.63 -1.4)" style="fill:#fff"/><path d="M334.79,18.43L337,9.59l-0.95-.24-2.21,8.85Z" transform="translate(0.63 -1.4)" style="fill:#fff"/><path d="M316.9,14.54l1.57-8.93-1-.17-1.57,8.92Z" transform="translate(0.63 -1.4)" style="fill:#fff"/><path d="M325.88,16.34l1.89-8.91-1-.2-1.89,8.9Z" transform="translate(0.63 -1.4)" style="fill:#fff"/><path d="M352.36,23.59l2.84-8.74-0.93-.3-2.84,8.74Z" transform="translate(0.63 -1.4)" style="fill:#fff"/><path d="M453,85l6.78-7-0.7-.68-6.77,7Z" transform="translate(0.63 -1.4)" style="fill:#fff"/><path d="M289.65,11.07l0.63-9-1-.07-0.63,9Z" transform="translate(0.63 -1.4)" style="fill:#fff"/><path d="M361,26.61l3.16-8.67-0.92-.33-3.15,8.66Z" transform="translate(0.63 -1.4)" style="fill:#fff"/><path d="M280.5,10.56l0.31-9-1,0-0.31,9Z" transform="translate(0.63 -1.4)" style="fill:#fff"/><path d="M298.77,11.92l0.94-9-1-.1-0.94,9Z" transform="translate(0.63 -1.4)" style="fill:#fff"/><path d="M307.85,13.08l1.26-9-1-.14-1.26,9Z" transform="translate(0.63 -1.4)" style="fill:#fff"/><path d="M343.62,20.86l2.53-8.81-0.94-.27-2.52,8.8Z" transform="translate(0.63 -1.4)" style="fill:#fff"/><path d="M425.18,61.29l5.64-7.76L430,53l-5.63,7.76Z" transform="translate(0.63 -1.4)" style="fill:#fff"/><path d="M417.73,56l5.34-7.91-0.81-.54-5.33,7.9Z" transform="translate(0.63 -1.4)" style="fill:#fff"/><path d="M432.44,66.84l5.93-7.59-0.77-.6-5.92,7.57Z" transform="translate(0.63 -1.4)" style="fill:#fff"/><path d="M446.37,78.67l6.49-7.21-0.72-.65L445.65,78Z" transform="translate(0.63 -1.4)" style="fill:#fff"/><path d="M439.51,72.64l6.22-7.41L445,64.6,438.76,72Z" transform="translate(0.63 -1.4)" style="fill:#fff"/><path d="M369.52,30l3.47-8.6-0.9-.37-3.47,8.6Z" transform="translate(0.63 -1.4)" style="fill:#fff"/><path d="M386.19,37.51l4.1-8.41-0.88-.43-4.1,8.41Z" transform="translate(0.63 -1.4)" style="fill:#fff"/><path d="M402.28,46.2L407,38l-0.84-.49-4.72,8.18Z" transform="translate(0.63 -1.4)" style="fill:#fff"/><path d="M377.93,33.57l3.78-8.5-0.89-.4L377,33.17Z" transform="translate(0.63 -1.4)" style="fill:#fff"/><path d="M394.32,41.7l4.41-8.29L397.87,33l-4.41,8.3Z" transform="translate(0.63 -1.4)" style="fill:#fff"/><path d="M410.09,51l5-8.05-0.83-.52-5,8.05Z" transform="translate(0.63 -1.4)" style="fill:#fff"/><path d="M416.46,489.62l5.8,8.59,0.81-.54-5.8-8.6Z" transform="translate(0.63 -1.4)" style="fill:#fff"/><path d="M401,499.29l5.16,8.94,0.84-.49-5.16-8.94Z" transform="translate(0.63 -1.4)" style="fill:#fff"/><path d="M408.81,494.58l5.49,8.78,0.83-.52-5.49-8.78Z" transform="translate(0.63 -1.4)" style="fill:#fff"/><path d="M393,503.72l4.83,9.09,0.86-.46-4.83-9.09Z" transform="translate(0.63 -1.4)" style="fill:#fff"/><path d="M384.92,507.87l4.5,9.23,0.88-.43-4.5-9.23Z" transform="translate(0.63 -1.4)" style="fill:#fff"/><path d="M376.66,511.74l4.16,9.35,0.89-.4-4.16-9.34Z" transform="translate(0.63 -1.4)" style="fill:#fff"/><path d="M445.14,467.18l7,7.77,0.72-.65-7-7.77Z" transform="translate(0.63 -1.4)" style="fill:#fff"/><path d="M451.8,461l7.28,7.54,0.7-.68-7.28-7.54Z" transform="translate(0.63 -1.4)" style="fill:#fff"/><path d="M431.19,478.9l6.41,8.21,0.77-.6L432,478.3Z" transform="translate(0.63 -1.4)" style="fill:#fff"/><path d="M438.26,473.15l6.72,8,0.75-.63-6.72-8Z" transform="translate(0.63 -1.4)" style="fill:#fff"/><path d="M423.91,484.38L430,492.8l0.79-.57-6.12-8.42Z" transform="translate(0.63 -1.4)" style="fill:#fff"/><path d="M359.76,518.59l3.48,9.56,0.92-.33-3.48-9.56Z" transform="translate(0.63 -1.4)" style="fill:#fff"/><path d="M324.72,528.65l2.1,9.87,1-.2-2.1-9.88Z" transform="translate(0.63 -1.4)" style="fill:#fff"/><path d="M315.76,530.41l1.75,9.91,1-.17-1.75-9.91Z" transform="translate(0.63 -1.4)" style="fill:#fff"/><path d="M306.75,531.82l1.4,10,1-.14-1.4-10Z" transform="translate(0.63 -1.4)" style="fill:#fff"/><path d="M288.6,533.74l0.7,10,1-.07-0.7-10Z" transform="translate(0.63 -1.4)" style="fill:#fff"/><path d="M297.69,532.95l1,10,1-.1-1-10Z" transform="translate(0.63 -1.4)" style="fill:#fff"/><path d="M342.42,524.24l2.79,9.73,0.94-.27L343.35,524Z" transform="translate(0.63 -1.4)" style="fill:#fff"/><path d="M458.25,454.53l7.55,7.29,0.68-.7-7.54-7.28Z" transform="translate(0.63 -1.4)" style="fill:#fff"/><path d="M333.61,526.6l2.45,9.81,0.95-.24-2.45-9.81Z" transform="translate(0.63 -1.4)" style="fill:#fff"/><path d="M351.14,521.56l3.14,9.66,0.93-.3-3.14-9.66Z" transform="translate(0.63 -1.4)" style="fill:#fff"/><path d="M368.27,515.3l3.83,9.47,0.9-.37-3.83-9.47Z" transform="translate(0.63 -1.4)" style="fill:#fff"/><path d="M516,362.62l9.81,3.57,0.33-.92-9.81-3.57Z" transform="translate(0.63 -1.4)" style="fill:#fff"/><path d="M524,336.5L534.14,339l0.24-.95-10.13-2.53Z" transform="translate(0.63 -1.4)" style="fill:#fff"/><path d="M279.49,534.22l0.35,10,1,0-0.35-10Z" transform="translate(0.63 -1.4)" style="fill:#fff"/><path d="M527.85,318.69l10.26,1.81,0.17-1L528,317.73C528,318.05,527.91,318.37,527.85,318.69Z" transform="translate(0.63 -1.4)" style="fill:#fff"/><path d="M519,354l9.94,3.23,0.3-.93-9.94-3.23Z" transform="translate(0.63 -1.4)" style="fill:#fff"/><path d="M521.64,345.3l10,2.88,0.27-.94-10-2.87C521.83,344.68,521.73,345,521.64,345.3Z" transform="translate(0.63 -1.4)" style="fill:#fff"/><path d="M526.08,327.63l10.21,2.17,0.2-1-10.21-2.17Z" transform="translate(0.63 -1.4)" style="fill:#fff"/><path d="M531.94,272.39c0,0.33,0,.65,0,1h10.4v-1H531.94Z" transform="translate(0.63 -1.4)" style="fill:#fff"/><path d="M531.72,282.48l10.42,0.36,0-1-10.42-.36C531.75,281.83,531.74,282.15,531.72,282.48Z" transform="translate(0.63 -1.4)" style="fill:#fff"/><path d="M529.28,309.69l10.34,1.45,0.14-1-10.34-1.45Z" transform="translate(0.63 -1.4)" style="fill:#fff"/><path d="M531.23,291.58l10.4,0.73,0.07-1-10.4-.73C531.27,290.93,531.26,291.25,531.23,291.58Z" transform="translate(0.63 -1.4)" style="fill:#fff"/><path d="M530.41,300.65l10.37,1.09,0.1-1-10.37-1.09C530.49,300,530.45,300.33,530.41,300.65Z" transform="translate(0.63 -1.4)" style="fill:#fff"/><path d="M512.68,371.11l9.7,3.92,0.37-.9-9.7-3.92Z" transform="translate(0.63 -1.4)" style="fill:#fff"/><path d="M8,281.57l-8.51.3,0,1,8.51-.3C8.05,282.22,8,281.9,8,281.57Z" transform="translate(0.63 -1.4)" style="fill:#fff"/><path d="M486.95,419.23l8.7,5.87,0.54-.81-8.7-5.87Z" transform="translate(0.63 -1.4)" style="fill:#fff"/><path d="M481.69,426.67l8.5,6.18,0.57-.79-8.5-6.17Z" transform="translate(0.63 -1.4)" style="fill:#fff"/><path d="M470.45,441l8,6.75,0.63-.75-8-6.75Z" transform="translate(0.63 -1.4)" style="fill:#fff"/><path d="M476.21,433.94l8.27,6.46,0.6-.77-8.27-6.47Z" transform="translate(0.63 -1.4)" style="fill:#fff"/><path d="M509.1,379.49l9.55,4.25,0.4-.89-9.56-4.26Z" transform="translate(0.63 -1.4)" style="fill:#fff"/><path d="M496.63,403.8l9.08,5.24,0.49-.84L497.13,403Z" transform="translate(0.63 -1.4)" style="fill:#fff"/><path d="M505.22,387.73l9.41,4.59,0.43-.88-9.41-4.59Z" transform="translate(0.63 -1.4)" style="fill:#fff"/><path d="M464.47,447.88l7.8,7,0.65-.72-7.8-7Z" transform="translate(0.63 -1.4)" style="fill:#fff"/><path d="M501.07,395.84l9.25,4.92,0.46-.86L501.52,395Z" transform="translate(0.63 -1.4)" style="fill:#fff"/><path d="M491.91,411.59l8.9,5.56,0.52-.83-8.9-5.56Z" transform="translate(0.63 -1.4)" style="fill:#fff"/><path d="M30.6,379.31l-8,3.54,0.4,0.89,8-3.54Z" transform="translate(0.63 -1.4)" style="fill:#fff"/><path d="M43.15,403.78L35.5,408.2,36,409l7.65-4.42Z" transform="translate(0.63 -1.4)" style="fill:#fff"/><path d="M34.5,387.61l-7.87,3.84,0.43,0.88,7.88-3.84Z" transform="translate(0.63 -1.4)" style="fill:#fff"/><path d="M38.68,395.77l-7.76,4.13,0.46,0.86,7.76-4.13Z" transform="translate(0.63 -1.4)" style="fill:#fff"/><path d="M52.9,419.3l-7.38,5,0.54,0.81,7.39-5Z" transform="translate(0.63 -1.4)" style="fill:#fff"/><path d="M47.89,411.62l-7.53,4.7,0.52,0.83,7.53-4.7Z" transform="translate(0.63 -1.4)" style="fill:#fff"/><path d="M75.52,448.1l-6.74,6.07,0.65,0.72,6.74-6.07Z" transform="translate(0.63 -1.4)" style="fill:#fff"/><path d="M81.78,454.78l-6.56,6.33,0.68,0.7,6.56-6.34Z" transform="translate(0.63 -1.4)" style="fill:#fff"/><path d="M58.18,426.79l-7.25,5.27,0.57,0.79,7.25-5.27Z" transform="translate(0.63 -1.4)" style="fill:#fff"/><path d="M69.5,441.2L62.57,447l0.63,0.75,6.93-5.81Z" transform="translate(0.63 -1.4)" style="fill:#fff"/><path d="M88.27,461.25l-6.35,6.58,0.7,0.68L89,461.93Z" transform="translate(0.63 -1.4)" style="fill:#fff"/><path d="M63.7,434.1l-7.08,5.53,0.6,0.77,7.09-5.54Z" transform="translate(0.63 -1.4)" style="fill:#fff"/><path d="M10.41,309l-8.46,1.19,0.14,1L10.54,310Z" transform="translate(0.63 -1.4)" style="fill:#fff"/><path d="M11.83,318.06l-8.41,1.48,0.17,1L12,319C11.94,318.7,11.88,318.38,11.83,318.06Z" transform="translate(0.63 -1.4)" style="fill:#fff"/><path d="M13.58,327.07L5.2,328.85l0.2,1L13.79,328Z" transform="translate(0.63 -1.4)" style="fill:#fff"/><path d="M9.29,299.88l-8.48.89,0.1,1,8.48-.89C9.36,300.53,9.32,300.21,9.29,299.88Z" transform="translate(0.63 -1.4)" style="fill:#fff"/><path d="M8.5,290.74l-8.5.59,0.07,1,8.49-.59C8.54,291.39,8.52,291.06,8.5,290.74Z" transform="translate(0.63 -1.4)" style="fill:#fff"/><path d="M18,344.87l-8.26,2.37L10,348.18l8.27-2.37C18.2,345.49,18.11,345.18,18,344.87Z" transform="translate(0.63 -1.4)" style="fill:#fff"/><path d="M23.7,362.32l-8.12,3,0.33,0.92,8.13-3Z" transform="translate(0.63 -1.4)" style="fill:#fff"/><path d="M20.72,353.64l-8.21,2.67,0.3,0.93L21,354.57Z" transform="translate(0.63 -1.4)" style="fill:#fff"/><path d="M15.65,336l-8.33,2.08L7.55,339,15.88,337C15.8,336.64,15.73,336.32,15.65,336Z" transform="translate(0.63 -1.4)" style="fill:#fff"/><path d="M27,370.87L19,374.13l0.37,0.9,8.06-3.26Z" transform="translate(0.63 -1.4)" style="fill:#fff"/><path d="M101.9,473.47L96,480.53l0.75,0.63,5.92-7.06Z" transform="translate(0.63 -1.4)" style="fill:#fff"/><path d="M207,526.81l-2.34,9.37,0.95,0.24L208,527Z" transform="translate(0.63 -1.4)" style="fill:#fff"/><path d="M215.94,528.84l-2,9.48,1,0.2,2-9.47Z" transform="translate(0.63 -1.4)" style="fill:#fff"/><path d="M189.45,521.82l-3,9.1,0.93,0.3,3-9.1Z" transform="translate(0.63 -1.4)" style="fill:#fff"/><path d="M198.2,524.48l-2.64,9.22,0.94,0.27,2.65-9.23Z" transform="translate(0.63 -1.4)" style="fill:#fff"/><path d="M95,467.47l-6.15,6.83L89.56,475l6.15-6.83Z" transform="translate(0.63 -1.4)" style="fill:#fff"/><path d="M252.12,533.8l-0.69,9.86,1,0.07,0.69-9.87Z" transform="translate(0.63 -1.4)" style="fill:#fff"/><path d="M180.8,518.87l-3.26,9,0.92,0.33,3.26-9Z" transform="translate(0.63 -1.4)" style="fill:#fff"/><path d="M261.23,534.26l-0.35,9.92,1,0,0.35-9.91Z" transform="translate(0.63 -1.4)" style="fill:#fff"/><path d="M233.95,531.95l-1.36,9.7,1,0.14,1.36-9.7Z" transform="translate(0.63 -1.4)" style="fill:#fff"/><path d="M243,533.05l-1,9.77,1,0.1,1-9.78Z" transform="translate(0.63 -1.4)" style="fill:#fff"/><path d="M224.92,530.56l-1.69,9.59,1,0.17,1.69-9.6Z" transform="translate(0.63 -1.4)" style="fill:#fff"/><path d="M131.53,494.92l-5,7.92,0.83,0.52,5-7.92Z" transform="translate(0.63 -1.4)" style="fill:#fff"/><path d="M116.34,484.71l-5.46,7.51,0.79,0.57,5.46-7.51Z" transform="translate(0.63 -1.4)" style="fill:#fff"/><path d="M123.84,490l-5.2,7.71,0.81,0.54,5.21-7.72Z" transform="translate(0.63 -1.4)" style="fill:#fff"/><path d="M270.36,534.41v9.95h1v-10h-1Z" transform="translate(0.63 -1.4)" style="fill:#fff"/><path d="M109,479.22l-5.69,7.29,0.77,0.6,5.7-7.29Z" transform="translate(0.63 -1.4)" style="fill:#fff"/><path d="M139.37,499.64l-4.68,8.1,0.84,0.49,4.68-8.11Z" transform="translate(0.63 -1.4)" style="fill:#fff"/><path d="M163.83,512L160,520.69l0.89,0.4,3.85-8.65Z" transform="translate(0.63 -1.4)" style="fill:#fff"/><path d="M172.26,515.6l-3.56,8.8,0.9,0.37,3.55-8.8Z" transform="translate(0.63 -1.4)" style="fill:#fff"/><path d="M155.53,508.2l-4.13,8.47,0.88,0.43,4.13-8.46Z" transform="translate(0.63 -1.4)" style="fill:#fff"/><path d="M147.38,504.05l-4.41,8.3,0.86,0.46,4.41-8.3Z" transform="translate(0.63 -1.4)" style="fill:#fff"/><path d="M176.83,189.79h5.8l9.43,14.65,9.43-14.65h5.8v31h-5.44V198.55l-9.78,14.61h-0.18l-9.69-14.52v22.13h-5.36v-31Z" transform="translate(0.63 -1.4)" style="fill:#fff"/><path d="M237.38,189.79h23v4.87H242.83v8.06h15.54v4.87H242.83v8.32h17.75v4.87H237.38v-31Z" transform="translate(0.63 -1.4)" style="fill:#fff"/><path d="M289.18,189.79h23v4.87H294.62v8.06h15.54v4.87H294.62v8.32h17.75v4.87H289.18v-31Z" transform="translate(0.63 -1.4)" style="fill:#fff"/><path d="M348.58,194.83h-9.83v-5h25.14v5h-9.83v25.94h-5.49V194.83Z" transform="translate(0.63 -1.4)" style="fill:#fff"/><line x1="247.95" y1="292.11" x2="294.03" y2="292.11" style="fill:#fff"/><rect x="247.95" y="291.11" width="46.07" height="2" style="fill:#fff"/><path d="M282.39,341.67a84.87,84.87,0,0,0-12.11-.78,83.8,83.8,0,0,0-12.07.78c-4.11.63-6.43,1.51-7.3,2.79l-0.18.26V345c-0.05,1.39,0,50,0,52,0,0.91-.05,22.26,0,23.63V421l0.18,0.26c0.87,1.28,3.18,2.16,7.29,2.79a83.78,83.78,0,0,0,12.07.78,84.86,84.86,0,0,0,12.11-.78c4.13-.62,6.49-1.5,7.42-2.75L290,421V344.71l-0.22-.3C288.88,343.17,286.52,342.29,282.39,341.67Zm5.4,3.87V396H253c0-5.45,0-45.82,0-50.44,1.42-1.2,7.77-2.4,17.33-2.4C278.72,343.11,286,344.13,287.79,345.53Zm-27.85,61.36V398.3h1.74v8.59h-1.74Zm4,2.23V398.19h23.88v22c-1.56,1.21-8,2.42-17.52,2.42s-15.91-1.2-17.33-2.4c0-2.69,0-16.15,0-22h4.76v10.94h6.2Z" transform="translate(0.63 -1.4)" style="fill:#fff"/><path d="M176.76,251.61l1.43-1.33a3.8,3.8,0,0,0,3.06,1.53,1.82,1.82,0,0,0,2-1.76v0c0-1.15-1-1.8-2.68-1.8h-0.95l-0.33-1.28,3.15-3.35h-5V241.8h7.71v1.53l-3.25,3.33c1.76,0.23,3.43,1.12,3.43,3.28v0c0,2.15-1.67,3.68-4.08,3.68A5.53,5.53,0,0,1,176.76,251.61Z" transform="translate(0.63 -1.4)" style="fill:#fff"/><path d="M197,252.44c-0.88-.9-1.42-2.11-1.42-4.46v0c0-3.56,1.7-6.34,5-6.34a5.28,5.28,0,0,1,3.56,1.3l-1.1,1.58a3.87,3.87,0,0,0-2.53-1c-1.73,0-2.7,1.56-2.8,3.7a3.71,3.71,0,0,1,2.78-1.17c2.26,0,4.08,1.33,4.08,3.66v0a4,4,0,0,1-4.33,4A4.4,4.4,0,0,1,197,252.44Zm5.53-2.66v0a2.12,2.12,0,0,0-2.38-2,2.15,2.15,0,0,0-2.36,2v0a2.18,2.18,0,0,0,2.41,2.1A2.12,2.12,0,0,0,202.56,249.78Z" transform="translate(0.63 -1.4)" style="fill:#fff"/><path d="M214.87,247.66v0c0-3.33,2-6,5.09-6s5.06,2.66,5.06,6v0c0,3.33-2,6-5.09,6S214.87,251,214.87,247.66Zm8,0v0c0-2.3-1.18-4.18-3-4.18S217,245.28,217,247.6v0c0,2.3,1.17,4.18,3,4.18S222.91,250,222.91,247.66Z" transform="translate(0.63 -1.4)" style="fill:#fff"/><path d="M235.45,244.42v0a2.77,2.77,0,0,1,5.54,0v0A2.77,2.77,0,0,1,235.45,244.42Zm4.34,0v0a1.57,1.57,0,1,0-3.15,0v0A1.57,1.57,0,1,0,239.8,244.42Z" transform="translate(0.63 -1.4)" style="fill:#fff"/><path d="M264.51,251.76l1.23-1.46a5.37,5.37,0,0,0,3.68,1.51c1.26,0,2.06-.58,2.06-1.46v0c0-.83-0.47-1.28-2.63-1.78-2.48-.6-3.88-1.33-3.88-3.48v0c0-2,1.67-3.38,4-3.38a6.46,6.46,0,0,1,4.23,1.46l-1.1,1.55a5.29,5.29,0,0,0-3.16-1.2c-1.2,0-1.9.62-1.9,1.38v0c0,0.9.53,1.3,2.76,1.83,2.46,0.6,3.75,1.48,3.75,3.41v0c0,2.18-1.71,3.48-4.16,3.48A7.18,7.18,0,0,1,264.51,251.76Z" transform="translate(0.63 -1.4)" style="fill:#fff"/><path d="M283.76,247.66v0a6.09,6.09,0,0,1,12.19,0v0A6.09,6.09,0,0,1,283.76,247.66Zm10,0v0a4,4,0,0,0-4-4.15,3.94,3.94,0,0,0-3.93,4.11v0a4,4,0,0,0,4,4.14A3.94,3.94,0,0,0,293.8,247.66Z" transform="translate(0.63 -1.4)" style="fill:#fff"/><path d="M306.58,248.51V241.8h2v6.63c0,2.16,1.12,3.33,2.95,3.33s2.93-1.1,2.93-3.25V241.8h2v6.61c0,3.48-2,5.23-5,5.23S306.58,251.89,306.58,248.51Z" transform="translate(0.63 -1.4)" style="fill:#fff"/><path d="M327.69,241.8h1.9l6.24,8.06V241.8h2v11.65h-1.71l-6.43-8.29v8.29h-2V241.8Z" transform="translate(0.63 -1.4)" style="fill:#fff"/><path d="M349.18,241.8h4.34c3.66,0,6.19,2.51,6.19,5.79v0a5.83,5.83,0,0,1-6.19,5.83h-4.34V241.8Zm4.34,9.79a3.8,3.8,0,0,0,4-3.93v0a3.82,3.82,0,0,0-4-4h-2.3v7.92h2.3Z" transform="translate(0.63 -1.4)" style="fill:#fff"/><path d="M166.07,48.83A245.21,245.21,0,0,1,444,98.81l0.39-.3A245.77,245.77,0,0,0,165.87,48.39Z" transform="translate(0.63 -1.4)" style="fill:#fff"/><path d="M373.34,494.3a245.21,245.21,0,0,1-277.92-50l-0.39.3a245.77,245.77,0,0,0,278.51,50.12Z" transform="translate(0.63 -1.4)" style="fill:#fff"/></svg>