<svg id="772dab3a-612c-4316-b399-1c96f9ac0d0d" data-name="Layer 1" xmlns="http://www.w3.org/2000/svg" viewBox="0 0 542.95 542.95"><title>EndFrameVectors-01</title><path d="M140.4,44.38L136.16,37l-0.84.49,4.24,7.34Z" transform="translate(0 -0.92)" style="fill:#fff"/><path d="M132.52,49.1L128,41.91l-0.83.52,4.49,7.19Z" transform="translate(0 -0.92)" style="fill:#fff"/><path d="M148.45,40l-4-7.51-0.86.46,4,7.51Z" transform="translate(0 -0.92)" style="fill:#fff"/><path d="M165,32l-3.47-7.8-0.89.4,3.47,7.79Z" transform="translate(0 -0.92)" style="fill:#fff"/><path d="M156.64,35.82l-3.73-7.64L152,28.6l3.73,7.65Z" transform="translate(0 -0.92)" style="fill:#fff"/><path d="M124.8,54.07l-4.73-7-0.81.54,4.73,7Z" transform="translate(0 -0.92)" style="fill:#fff"/><path d="M102.77,70.58l-5.42-6.46-0.75.63L102,71.21Z" transform="translate(0 -0.92)" style="fill:#fff"/><path d="M95.83,76.59l-5.64-6.27L89.46,71l5.64,6.26Z" transform="translate(0 -0.92)" style="fill:#fff"/><path d="M117.27,59.32l-5-6.84-0.79.57,5,6.84Z" transform="translate(0 -0.92)" style="fill:#fff"/><path d="M109.92,64.82l-5.2-6.66-0.77.6,5.2,6.65Z" transform="translate(0 -0.92)" style="fill:#fff"/><path d="M235.4,12.19l-1.22-8.7-1,.14,1.22,8.7Z" transform="translate(0 -0.92)" style="fill:#fff"/><path d="M89.09,82.82l-5.84-6.05-0.7.68,5.85,6.06Z" transform="translate(0 -0.92)" style="fill:#fff"/><path d="M173.43,28.43l-3.2-7.93-0.9.37,3.2,7.93Z" transform="translate(0 -0.92)" style="fill:#fff"/><path d="M244.51,11.12l-0.92-8.77-1,.1,0.92,8.76Z" transform="translate(0 -0.92)" style="fill:#fff"/><path d="M253.65,10.4L253,1.54l-1,.07,0.62,8.85Z" transform="translate(0 -0.92)" style="fill:#fff"/><path d="M217.32,15.25l-1.81-8.5-1,.2,1.81,8.51Z" transform="translate(0 -0.92)" style="fill:#fff"/><path d="M226.33,13.57L224.81,5l-1,.17,1.52,8.6Z" transform="translate(0 -0.92)" style="fill:#fff"/><path d="M8.48,271.91H0v1H8.49C8.49,272.55,8.48,272.23,8.48,271.91Z" transform="translate(0 -0.92)" style="fill:#fff"/><path d="M190.71,22.24L188,14.05l-0.93.3,2.66,8.18Z" transform="translate(0 -0.92)" style="fill:#fff"/><path d="M208.37,17.28l-2.1-8.41-0.95.24,2.1,8.41Z" transform="translate(0 -0.92)" style="fill:#fff"/><path d="M262.8,10l-0.31-8.9-1,0,0.31,8.9Z" transform="translate(0 -0.92)" style="fill:#fff"/><path d="M199.49,19.59l-2.38-8.29-0.94.27,2.38,8.28Z" transform="translate(0 -0.92)" style="fill:#fff"/><path d="M18.64,199.39l-8-2.29-0.27.94,8,2.29Z" transform="translate(0 -0.92)" style="fill:#fff"/><path d="M16.27,208.26l-8.09-2-0.24.95,8.1,2Z" transform="translate(0 -0.92)" style="fill:#fff"/><path d="M21.35,190.61L13.44,188l-0.3.93L21,191.53Z" transform="translate(0 -0.92)" style="fill:#fff"/><path d="M14.21,217.21L6,215.47l-0.2,1L14,218.16C14.07,217.84,14.14,217.53,14.21,217.21Z" transform="translate(0 -0.92)" style="fill:#fff"/><path d="M24.33,181.92l-7.79-2.84-0.33.92,7.8,2.84C24.12,182.53,24.22,182.22,24.33,181.92Z" transform="translate(0 -0.92)" style="fill:#fff"/><path d="M27.65,173.35L20,170.24l-0.37.9,7.7,3.11Z" transform="translate(0 -0.92)" style="fill:#fff"/><path d="M8.65,262.73l-8.47-.3,0,1,8.47,0.3C8.63,263.38,8.64,263.05,8.65,262.73Z" transform="translate(0 -0.92)" style="fill:#fff"/><path d="M9.13,253.56L0.7,253l-0.07,1,8.44,0.59C9.08,254.21,9.1,253.88,9.13,253.56Z" transform="translate(0 -0.92)" style="fill:#fff"/><path d="M9.91,244.41l-8.37-.88-0.1,1,8.37,0.88C9.84,245.06,9.87,244.73,9.91,244.41Z" transform="translate(0 -0.92)" style="fill:#fff"/><path d="M82.58,89.3l-6.05-5.84-0.68.7,6,5.84Z" transform="translate(0 -0.92)" style="fill:#fff"/><path d="M11,235.3l-8.32-1.17-0.14,1,8.32,1.17Z" transform="translate(0 -0.92)" style="fill:#fff"/><path d="M12.45,226.22l-8.24-1.45-0.17,1,8.25,1.45C12.35,226.87,12.39,226.54,12.45,226.22Z" transform="translate(0 -0.92)" style="fill:#fff"/><path d="M64.44,110l-6.59-5.15-0.6.77,6.59,5.15Z" transform="translate(0 -0.92)" style="fill:#fff"/><path d="M58.9,117.34l-6.77-4.92-0.57.79,6.76,4.91Z" transform="translate(0 -0.92)" style="fill:#fff"/><path d="M53.6,124.84l-6.91-4.66-0.54.81L53,125.65Z" transform="translate(0 -0.92)" style="fill:#fff"/><path d="M70.25,102.91l-6.43-5.39-0.63.75,6.42,5.39Z" transform="translate(0 -0.92)" style="fill:#fff"/><path d="M76.29,96l-6.23-5.61-0.65.72,6.24,5.62Z" transform="translate(0 -0.92)" style="fill:#fff"/><path d="M43.82,140.39l-7.21-4.16-0.49.84,7.2,4.16Z" transform="translate(0 -0.92)" style="fill:#fff"/><path d="M35.16,156.59l-7.47-3.64-0.43.88,7.46,3.64Z" transform="translate(0 -0.92)" style="fill:#fff"/><path d="M39.35,148.42L32,144.51l-0.46.86,7.34,3.9Z" transform="translate(0 -0.92)" style="fill:#fff"/><path d="M31.25,164.9l-7.58-3.38-0.4.89,7.59,3.38Z" transform="translate(0 -0.92)" style="fill:#fff"/><path d="M48.58,132.54l-7.07-4.42-0.52.83,7.07,4.42Z" transform="translate(0 -0.92)" style="fill:#fff"/><path d="M182,25.18l-2.93-8.06-0.92.33,2.93,8Z" transform="translate(0 -0.92)" style="fill:#fff"/><path d="M272,9.86V0.92h-1V9.85h1Z" transform="translate(0 -0.92)" style="fill:#fff"/><path d="M460.07,90.95l7-6.79-0.68-.7-7,6.79Z" transform="translate(0 -0.92)" style="fill:#fff"/><path d="M498.19,142.06l8.64-5-0.49-.84-8.63,5Z" transform="translate(0 -0.92)" style="fill:#fff"/><path d="M506.69,158.21l9-4.39-0.43-.88-9,4.39Z" transform="translate(0 -0.92)" style="fill:#fff"/><path d="M510.49,166.51l9.19-4.09-0.4-.89-9.18,4.09Z" transform="translate(0 -0.92)" style="fill:#fff"/><path d="M477.92,111.72l7.79-6.08-0.6-.77-7.78,6.08Z" transform="translate(0 -0.92)" style="fill:#fff"/><path d="M472.21,104.59l7.54-6.33-0.63-.75-7.54,6.33Z" transform="translate(0 -0.92)" style="fill:#fff"/><path d="M466.25,97.68l7.3-6.57-0.65-.72-7.3,6.57Z" transform="translate(0 -0.92)" style="fill:#fff"/><path d="M488.58,126.54l8.23-5.55-0.54-.81L488,125.73Z" transform="translate(0 -0.92)" style="fill:#fff"/><path d="M483.38,119l8-5.82-0.57-.79-8,5.82Z" transform="translate(0 -0.92)" style="fill:#fff"/><path d="M514,174.92l9.34-3.77-0.37-.9L513.66,174Z" transform="translate(0 -0.92)" style="fill:#fff"/><path d="M493.51,134.22l8.45-5.28-0.52-.83L493,133.4Z" transform="translate(0 -0.92)" style="fill:#fff"/><path d="M530.18,236.53l10.2-1.43-0.14-1L530,235.56C530.09,235.88,530.14,236.2,530.18,236.53Z" transform="translate(0 -0.92)" style="fill:#fff"/><path d="M531.25,245.58l10.26-1.08-0.1-1-10.26,1.08Z" transform="translate(0 -0.92)" style="fill:#fff"/><path d="M532.43,263.77l10.38-.36,0-1-10.38.36C532.4,263.12,532.42,263.44,532.43,263.77Z" transform="translate(0 -0.92)" style="fill:#fff"/><path d="M528.8,227.51l10.11-1.78-0.17-1-10.1,1.78C528.7,226.87,528.75,227.19,528.8,227.51Z" transform="translate(0 -0.92)" style="fill:#fff"/><path d="M517.25,183.46l9.5-3.46-0.33-.92-9.49,3.45Z" transform="translate(0 -0.92)" style="fill:#fff"/><path d="M532,254.67l10.34-.72-0.07-1-10.33.72C531.95,254,532,254.34,532,254.67Z" transform="translate(0 -0.92)" style="fill:#fff"/><path d="M520.18,192.1l9.64-3.13-0.3-.93-9.64,3.13Z" transform="translate(0 -0.92)" style="fill:#fff"/><path d="M522.81,200.83l9.76-2.8-0.27-.94-9.75,2.8Z" transform="translate(0 -0.92)" style="fill:#fff"/><path d="M527.13,218.55l10-2.12-0.2-1-10,2.13C527,217.92,527.06,218.23,527.13,218.55Z" transform="translate(0 -0.92)" style="fill:#fff"/><path d="M525.11,209.66l9.9-2.47-0.24-.95-9.89,2.47Z" transform="translate(0 -0.92)" style="fill:#fff"/><path d="M502.57,150.07l8.84-4.7-0.46-.86-8.84,4.7Z" transform="translate(0 -0.92)" style="fill:#fff"/><path d="M335.42,17.95l2.21-8.85-0.95-.24-2.21,8.85Z" transform="translate(0 -0.92)" style="fill:#fff"/><path d="M317.52,14.05l1.57-8.93-1-.17-1.57,8.92Z" transform="translate(0 -0.92)" style="fill:#fff"/><path d="M326.5,15.86l1.89-8.91-1-.2-1.89,8.9Z" transform="translate(0 -0.92)" style="fill:#fff"/><path d="M353,23.1l2.84-8.74-0.93-.3-2.84,8.74Z" transform="translate(0 -0.92)" style="fill:#fff"/><path d="M453.63,84.46l6.78-7-0.7-.68-6.77,7Z" transform="translate(0 -0.92)" style="fill:#fff"/><path d="M290.27,10.58l0.63-9-1-.07-0.63,9Z" transform="translate(0 -0.92)" style="fill:#fff"/><path d="M361.63,26.13l3.16-8.67-0.92-.33-3.15,8.66Z" transform="translate(0 -0.92)" style="fill:#fff"/><path d="M281.13,10.07l0.31-9-1,0-0.31,9Z" transform="translate(0 -0.92)" style="fill:#fff"/><path d="M299.39,11.43l0.94-9-1-.1-0.94,9Z" transform="translate(0 -0.92)" style="fill:#fff"/><path d="M308.48,12.59l1.26-9-1-.14-1.26,9Z" transform="translate(0 -0.92)" style="fill:#fff"/><path d="M344.25,20.37l2.53-8.81-0.94-.27-2.52,8.8Z" transform="translate(0 -0.92)" style="fill:#fff"/><path d="M425.81,60.81L431.44,53l-0.79-.57L425,60.23Z" transform="translate(0 -0.92)" style="fill:#fff"/><path d="M418.35,55.51l5.34-7.91-0.81-.54L417.55,55Z" transform="translate(0 -0.92)" style="fill:#fff"/><path d="M433.07,66.35L439,58.77l-0.77-.6-5.92,7.57Z" transform="translate(0 -0.92)" style="fill:#fff"/><path d="M447,78.18L453.49,71l-0.72-.65-6.49,7.21Z" transform="translate(0 -0.92)" style="fill:#fff"/><path d="M440.13,72.15l6.22-7.41-0.75-.63-6.22,7.41Z" transform="translate(0 -0.92)" style="fill:#fff"/><path d="M370.15,29.47l3.47-8.6-0.9-.37-3.47,8.6Z" transform="translate(0 -0.92)" style="fill:#fff"/><path d="M386.82,37l4.1-8.41L390,28.18l-4.1,8.41Z" transform="translate(0 -0.92)" style="fill:#fff"/><path d="M402.91,45.72l4.73-8.19L406.79,37l-4.72,8.18Z" transform="translate(0 -0.92)" style="fill:#fff"/><path d="M378.56,33.08l3.78-8.5-0.89-.4-3.78,8.5Z" transform="translate(0 -0.92)" style="fill:#fff"/><path d="M394.95,41.22l4.41-8.29-0.86-.46-4.41,8.3Z" transform="translate(0 -0.92)" style="fill:#fff"/><path d="M410.72,50.47l5-8.05-0.83-.52-5,8.05Z" transform="translate(0 -0.92)" style="fill:#fff"/><path d="M417.09,489.14l5.8,8.59,0.81-.54-5.8-8.6Z" transform="translate(0 -0.92)" style="fill:#fff"/><path d="M401.63,498.81l5.16,8.94,0.84-.49-5.16-8.94Z" transform="translate(0 -0.92)" style="fill:#fff"/><path d="M409.44,494.09l5.49,8.78,0.83-.52-5.49-8.78Z" transform="translate(0 -0.92)" style="fill:#fff"/><path d="M393.66,503.23l4.83,9.09,0.86-.46-4.83-9.09Z" transform="translate(0 -0.92)" style="fill:#fff"/><path d="M385.55,507.38l4.5,9.23,0.88-.43-4.5-9.23Z" transform="translate(0 -0.92)" style="fill:#fff"/><path d="M377.29,511.25l4.16,9.35,0.89-.4-4.16-9.34Z" transform="translate(0 -0.92)" style="fill:#fff"/><path d="M445.77,466.69l7,7.77,0.72-.65-7-7.77Z" transform="translate(0 -0.92)" style="fill:#fff"/><path d="M452.43,460.48l7.28,7.54,0.7-.68-7.28-7.54Z" transform="translate(0 -0.92)" style="fill:#fff"/><path d="M431.82,478.41l6.41,8.21L439,486l-6.41-8.21Z" transform="translate(0 -0.92)" style="fill:#fff"/><path d="M438.89,472.66l6.72,8,0.75-.63-6.72-8Z" transform="translate(0 -0.92)" style="fill:#fff"/><path d="M424.54,483.89l6.12,8.42,0.79-.57-6.12-8.42Z" transform="translate(0 -0.92)" style="fill:#fff"/><path d="M360.39,518.11l3.48,9.56,0.92-.33-3.48-9.56Z" transform="translate(0 -0.92)" style="fill:#fff"/><path d="M325.34,528.17l2.1,9.87,1-.2L326.3,528Z" transform="translate(0 -0.92)" style="fill:#fff"/><path d="M316.39,529.92l1.75,9.91,1-.17-1.75-9.91Z" transform="translate(0 -0.92)" style="fill:#fff"/><path d="M307.38,531.33l1.4,10,1-.14-1.4-10Z" transform="translate(0 -0.92)" style="fill:#fff"/><path d="M289.23,533.26l0.7,10,1-.07-0.7-10Z" transform="translate(0 -0.92)" style="fill:#fff"/><path d="M298.32,532.46l1,10,1-.1-1-10Z" transform="translate(0 -0.92)" style="fill:#fff"/><path d="M343,523.75l2.79,9.73,0.94-.27L344,523.47Z" transform="translate(0 -0.92)" style="fill:#fff"/><path d="M458.88,454l7.55,7.29,0.68-.7-7.54-7.28Z" transform="translate(0 -0.92)" style="fill:#fff"/><path d="M334.23,526.11l2.45,9.81,0.95-.24-2.45-9.81Z" transform="translate(0 -0.92)" style="fill:#fff"/><path d="M351.76,521.07l3.14,9.66,0.93-.3-3.14-9.66Z" transform="translate(0 -0.92)" style="fill:#fff"/><path d="M368.9,514.82l3.83,9.47,0.9-.37-3.83-9.47Z" transform="translate(0 -0.92)" style="fill:#fff"/><path d="M516.61,362.13l9.81,3.57,0.33-.92-9.81-3.57Z" transform="translate(0 -0.92)" style="fill:#fff"/><path d="M524.64,336l10.13,2.52,0.24-.95-10.13-2.53Z" transform="translate(0 -0.92)" style="fill:#fff"/><path d="M280.12,533.73l0.35,10,1,0-0.35-10Z" transform="translate(0 -0.92)" style="fill:#fff"/><path d="M528.48,318.2L538.74,320l0.17-1-10.27-1.81C528.59,317.56,528.54,317.89,528.48,318.2Z" transform="translate(0 -0.92)" style="fill:#fff"/><path d="M519.58,353.52l9.94,3.23,0.3-.93-9.94-3.23Z" transform="translate(0 -0.92)" style="fill:#fff"/><path d="M522.27,344.81l10,2.88,0.27-.94-10-2.87C522.46,344.19,522.36,344.5,522.27,344.81Z" transform="translate(0 -0.92)" style="fill:#fff"/><path d="M526.71,327.14l10.21,2.17,0.2-1-10.21-2.17Z" transform="translate(0 -0.92)" style="fill:#fff"/><path d="M532.56,271.91c0,0.33,0,.65,0,1H543v-1H532.56Z" transform="translate(0 -0.92)" style="fill:#fff"/><path d="M532.35,282l10.42,0.36,0-1L532.39,281C532.38,281.34,532.36,281.67,532.35,282Z" transform="translate(0 -0.92)" style="fill:#fff"/><path d="M529.91,309.2l10.34,1.45,0.14-1L530,308.24Z" transform="translate(0 -0.92)" style="fill:#fff"/><path d="M531.86,291.09l10.4,0.73,0.07-1-10.4-.73C531.9,290.44,531.88,290.77,531.86,291.09Z" transform="translate(0 -0.92)" style="fill:#fff"/><path d="M531,300.16l10.37,1.09,0.1-1-10.37-1.09C531.12,299.52,531.08,299.84,531,300.16Z" transform="translate(0 -0.92)" style="fill:#fff"/><path d="M513.3,370.62l9.7,3.92,0.37-.9-9.7-3.92Z" transform="translate(0 -0.92)" style="fill:#fff"/><path d="M8.66,281.08l-8.51.3,0,1,8.51-.3C8.68,281.73,8.67,281.41,8.66,281.08Z" transform="translate(0 -0.92)" style="fill:#fff"/><path d="M487.57,418.74l8.7,5.87,0.54-.81-8.7-5.87Z" transform="translate(0 -0.92)" style="fill:#fff"/><path d="M482.32,426.18l8.5,6.18,0.57-.79-8.5-6.17Z" transform="translate(0 -0.92)" style="fill:#fff"/><path d="M471.08,440.52l8,6.75,0.63-.75-8-6.75Z" transform="translate(0 -0.92)" style="fill:#fff"/><path d="M476.84,433.45l8.27,6.46,0.6-.77-8.27-6.47Z" transform="translate(0 -0.92)" style="fill:#fff"/><path d="M509.73,379l9.55,4.25,0.4-.89-9.56-4.26Z" transform="translate(0 -0.92)" style="fill:#fff"/><path d="M497.26,403.31l9.08,5.24,0.49-.84-9.07-5.24Z" transform="translate(0 -0.92)" style="fill:#fff"/><path d="M505.85,387.25l9.41,4.59,0.43-.88-9.41-4.59Z" transform="translate(0 -0.92)" style="fill:#fff"/><path d="M465.1,447.39l7.8,7,0.65-.72-7.8-7Z" transform="translate(0 -0.92)" style="fill:#fff"/><path d="M501.69,395.35l9.25,4.92,0.46-.86-9.26-4.92Z" transform="translate(0 -0.92)" style="fill:#fff"/><path d="M492.54,411.1l8.9,5.56,0.52-.83-8.9-5.56Z" transform="translate(0 -0.92)" style="fill:#fff"/><path d="M31.23,378.82l-8,3.54,0.4,0.89,8-3.54Z" transform="translate(0 -0.92)" style="fill:#fff"/><path d="M43.77,403.29l-7.65,4.41,0.49,0.84,7.65-4.42Z" transform="translate(0 -0.92)" style="fill:#fff"/><path d="M35.13,387.12L27.26,391l0.43,0.88L35.56,388Z" transform="translate(0 -0.92)" style="fill:#fff"/><path d="M39.31,395.29l-7.76,4.13L32,400.27l7.76-4.13Z" transform="translate(0 -0.92)" style="fill:#fff"/><path d="M53.52,418.82l-7.38,5,0.54,0.81,7.39-5Z" transform="translate(0 -0.92)" style="fill:#fff"/><path d="M48.52,411.14L41,415.84l0.52,0.83L49,412Z" transform="translate(0 -0.92)" style="fill:#fff"/><path d="M76.14,447.62l-6.74,6.07,0.65,0.72,6.74-6.07Z" transform="translate(0 -0.92)" style="fill:#fff"/><path d="M82.41,454.29l-6.56,6.33,0.68,0.7L83.09,455Z" transform="translate(0 -0.92)" style="fill:#fff"/><path d="M58.81,426.3l-7.25,5.27,0.57,0.79,7.25-5.27Z" transform="translate(0 -0.92)" style="fill:#fff"/><path d="M70.13,440.71l-6.93,5.81,0.63,0.75,6.93-5.81Z" transform="translate(0 -0.92)" style="fill:#fff"/><path d="M88.9,460.76l-6.35,6.58,0.7,0.68,6.35-6.58Z" transform="translate(0 -0.92)" style="fill:#fff"/><path d="M64.33,433.62l-7.08,5.53,0.6,0.77,7.09-5.54Z" transform="translate(0 -0.92)" style="fill:#fff"/><path d="M11,308.5l-8.46,1.19,0.14,1,8.46-1.19Z" transform="translate(0 -0.92)" style="fill:#fff"/><path d="M12.45,317.57L4,319.05l0.17,1,8.41-1.48C12.56,318.21,12.51,317.89,12.45,317.57Z" transform="translate(0 -0.92)" style="fill:#fff"/><path d="M14.21,326.58l-8.38,1.78,0.2,1,8.39-1.78Z" transform="translate(0 -0.92)" style="fill:#fff"/><path d="M9.91,299.39l-8.48.89,0.1,1,8.48-.89C10,300,9.95,299.72,9.91,299.39Z" transform="translate(0 -0.92)" style="fill:#fff"/><path d="M9.13,290.25l-8.5.59,0.07,1,8.49-.59C9.17,290.9,9.15,290.57,9.13,290.25Z" transform="translate(0 -0.92)" style="fill:#fff"/><path d="M18.65,344.38l-8.26,2.37,0.27,0.94,8.27-2.37C18.83,345,18.73,344.7,18.65,344.38Z" transform="translate(0 -0.92)" style="fill:#fff"/><path d="M24.32,361.83l-8.12,3,0.33,0.92,8.13-3Z" transform="translate(0 -0.92)" style="fill:#fff"/><path d="M21.34,353.15l-8.21,2.67,0.3,0.93,8.21-2.67Z" transform="translate(0 -0.92)" style="fill:#fff"/><path d="M16.27,335.52L7.95,337.6l0.24,0.95,8.32-2.08C16.43,336.15,16.35,335.83,16.27,335.52Z" transform="translate(0 -0.92)" style="fill:#fff"/><path d="M27.64,370.38l-8.06,3.25,0.37,0.9L28,371.29Z" transform="translate(0 -0.92)" style="fill:#fff"/><path d="M102.53,473L96.6,480l0.75,0.63,5.92-7.06Z" transform="translate(0 -0.92)" style="fill:#fff"/><path d="M207.66,526.32l-2.34,9.37,0.95,0.24,2.34-9.37Z" transform="translate(0 -0.92)" style="fill:#fff"/><path d="M216.57,528.36l-2,9.48,1,0.2,2-9.47Z" transform="translate(0 -0.92)" style="fill:#fff"/><path d="M190.08,521.33l-3,9.1,0.93,0.3,3-9.1Z" transform="translate(0 -0.92)" style="fill:#fff"/><path d="M198.82,524l-2.64,9.22,0.94,0.27,2.65-9.23Z" transform="translate(0 -0.92)" style="fill:#fff"/><path d="M95.61,467l-6.15,6.83,0.72,0.65,6.15-6.83Z" transform="translate(0 -0.92)" style="fill:#fff"/><path d="M252.74,533.31l-0.69,9.86,1,0.07,0.69-9.87Z" transform="translate(0 -0.92)" style="fill:#fff"/><path d="M181.43,518.38l-3.26,9,0.92,0.33,3.26-9Z" transform="translate(0 -0.92)" style="fill:#fff"/><path d="M261.86,533.77l-0.35,9.92,1,0,0.35-9.91Z" transform="translate(0 -0.92)" style="fill:#fff"/><path d="M234.57,531.46l-1.36,9.7,1,0.14,1.36-9.7Z" transform="translate(0 -0.92)" style="fill:#fff"/><path d="M243.64,532.56l-1,9.77,1,0.1,1-9.78Z" transform="translate(0 -0.92)" style="fill:#fff"/><path d="M225.55,530.07l-1.69,9.59,1,0.17,1.69-9.6Z" transform="translate(0 -0.92)" style="fill:#fff"/><path d="M132.15,494.44l-5,7.92,0.83,0.52,5-7.92Z" transform="translate(0 -0.92)" style="fill:#fff"/><path d="M117,484.23l-5.46,7.51,0.79,0.57,5.46-7.51Z" transform="translate(0 -0.92)" style="fill:#fff"/><path d="M124.47,489.47l-5.2,7.71,0.81,0.54,5.21-7.72Z" transform="translate(0 -0.92)" style="fill:#fff"/><path d="M271,533.92v9.95h1v-10h-1Z" transform="translate(0 -0.92)" style="fill:#fff"/><path d="M109.65,478.73L104,486l0.77,0.6,5.7-7.29Z" transform="translate(0 -0.92)" style="fill:#fff"/><path d="M140,499.15l-4.68,8.1,0.84,0.49,4.68-8.11Z" transform="translate(0 -0.92)" style="fill:#fff"/><path d="M164.46,511.56l-3.85,8.64,0.89,0.4,3.85-8.65Z" transform="translate(0 -0.92)" style="fill:#fff"/><path d="M172.88,515.12l-3.56,8.8,0.9,0.37,3.55-8.8Z" transform="translate(0 -0.92)" style="fill:#fff"/><path d="M156.16,507.71L152,516.18l0.88,0.43,4.13-8.46Z" transform="translate(0 -0.92)" style="fill:#fff"/><path d="M148,503.56l-4.41,8.3,0.86,0.46,4.41-8.3Z" transform="translate(0 -0.92)" style="fill:#fff"/><path d="M158.16,215.15l3-3.62c2.76,2.39,5.51,3.75,9.1,3.75,3.13,0,5.1-1.44,5.1-3.62v-0.08c0-2.06-1.15-3.17-6.5-4.4-6.13-1.48-9.59-3.29-9.59-8.6v-0.08c0-4.94,4.12-8.35,9.84-8.35a16,16,0,0,1,10.45,3.62l-2.72,3.83a13.08,13.08,0,0,0-7.82-3c-3,0-4.69,1.52-4.69,3.42v0.08c0,2.22,1.32,3.21,6.83,4.53,6.09,1.48,9.26,3.66,9.26,8.44v0.08c0,5.39-4.24,8.6-10.29,8.6A17.75,17.75,0,0,1,158.16,215.15Z" transform="translate(0 -0.92)" style="fill:#fff"/><path d="M207,190.54h5.06v12h13.75v-12h5.06v28.81h-5.06V207.2H212.07v12.14H207V190.54Z" transform="translate(0 -0.92)" style="fill:#fff"/><path d="M269.07,190.33h4.69l12.68,29h-5.35l-2.92-7H264.54l-3,7h-5.19Zm7.24,17.57-5-11.52-4.94,11.52h9.92Z" transform="translate(0 -0.92)" style="fill:#fff"/><path d="M312,190.54h12.84c3.62,0,6.46,1.07,8.31,2.88a8.71,8.71,0,0,1,2.39,6.21v0.08c0,4.73-2.84,7.57-6.87,8.73l7.78,10.91h-6l-7.08-10H317v10H312V190.54Zm12.47,14.28c3.62,0,5.93-1.89,5.93-4.81v-0.08c0-3.09-2.22-4.77-6-4.77H317v9.67h7.41Z" transform="translate(0 -0.92)" style="fill:#fff"/><path d="M362.28,190.54h21.36v4.53h-16.3v7.49h14.45v4.53H367.34v7.74h16.5v4.53H362.28V190.54Z" transform="translate(0 -0.92)" style="fill:#fff"/><line x1="247.97" y1="292.5" x2="294.04" y2="292.5" style="fill:#fff"/><rect x="247.97" y="291.5" width="46.07" height="2" style="fill:#fff"/><path d="M133.9,241.8h1.9l6.24,8.06V241.8h2v11.65h-1.71l-6.43-8.29v8.29h-2V241.8Z" transform="translate(0 -0.92)" style="fill:#fff"/><path d="M155.5,241.8h2v11.65h-2V241.8Z" transform="translate(0 -0.92)" style="fill:#fff"/><path d="M168.48,247.66v0a5.94,5.94,0,0,1,6-6,6.29,6.29,0,0,1,4.48,1.58l-1.3,1.55a4.57,4.57,0,0,0-3.26-1.25,3.94,3.94,0,0,0-3.78,4.11v0a3.89,3.89,0,0,0,4,4.16,4.76,4.76,0,0,0,2.81-.88v-2.18h-3v-1.78h5v4.89a7.43,7.43,0,0,1-4.86,1.82A5.78,5.78,0,0,1,168.48,247.66Z" transform="translate(0 -0.92)" style="fill:#fff"/><path d="M190.37,241.8h2v4.84H198V241.8h2v11.65h-2v-4.91h-5.56v4.91h-2V241.8Z" transform="translate(0 -0.92)" style="fill:#fff"/><path d="M214.22,243.7h-3.7v-1.9H220v1.9h-3.7v9.75h-2.06V243.7Z" transform="translate(0 -0.92)" style="fill:#fff"/><path d="M230.59,241.8h2v11.65h-2V241.8Z" transform="translate(0 -0.92)" style="fill:#fff"/><path d="M244.08,241.8H246l6.24,8.06V241.8h2v11.65h-1.71l-6.43-8.29v8.29h-2V241.8Z" transform="translate(0 -0.92)" style="fill:#fff"/><path d="M265,247.66v0a5.94,5.94,0,0,1,6-6,6.29,6.29,0,0,1,4.48,1.58l-1.3,1.55a4.57,4.57,0,0,0-3.26-1.25,3.94,3.94,0,0,0-3.78,4.11v0a3.89,3.89,0,0,0,4,4.16,4.76,4.76,0,0,0,2.81-.88v-2.18h-3v-1.78h5v4.89a7.43,7.43,0,0,1-4.86,1.82A5.78,5.78,0,0,1,265,247.66Z" transform="translate(0 -0.92)" style="fill:#fff"/><path d="M291.08,241.72H293l5.13,11.74h-2.16l-1.18-2.81h-5.51l-1.2,2.81h-2.1Zm2.93,7.11-2-4.66-2,4.66h4Z" transform="translate(0 -0.92)" style="fill:#fff"/><path d="M308.43,241.8h2v9.79h6.13v1.86h-8.17V241.8Z" transform="translate(0 -0.92)" style="fill:#fff"/><path d="M327.07,241.8h8.64v1.83h-6.59v3H335v1.83h-5.84v3.13h6.68v1.83h-8.72V241.8Z" transform="translate(0 -0.92)" style="fill:#fff"/><path d="M359.09,251.61l1.43-1.33a3.8,3.8,0,0,0,3.06,1.53,1.82,1.82,0,0,0,2-1.76v0c0-1.15-1-1.8-2.68-1.8H362l-0.33-1.28,3.15-3.35h-5V241.8h7.71v1.53l-3.25,3.33c1.76,0.23,3.43,1.12,3.43,3.28v0c0,2.15-1.67,3.68-4.08,3.68A5.53,5.53,0,0,1,359.09,251.61Z" transform="translate(0 -0.92)" style="fill:#fff"/><path d="M379.36,252.44c-0.88-.9-1.42-2.11-1.42-4.46v0c0-3.56,1.7-6.34,5-6.34a5.28,5.28,0,0,1,3.56,1.3l-1.1,1.58a3.87,3.87,0,0,0-2.53-1c-1.73,0-2.7,1.56-2.8,3.7a3.71,3.71,0,0,1,2.78-1.17c2.26,0,4.08,1.33,4.08,3.66v0a4,4,0,0,1-4.33,4A4.4,4.4,0,0,1,379.36,252.44Zm5.53-2.66v0a2.12,2.12,0,0,0-2.38-2,2.15,2.15,0,0,0-2.36,2v0a2.18,2.18,0,0,0,2.41,2.1A2.12,2.12,0,0,0,384.88,249.78Z" transform="translate(0 -0.92)" style="fill:#fff"/><path d="M397.19,247.66v0c0-3.33,2-6,5.09-6s5.06,2.66,5.06,6v0c0,3.33-2,6-5.09,6S397.19,251,397.19,247.66Zm8,0v0c0-2.3-1.18-4.18-3-4.18s-2.95,1.83-2.95,4.14v0c0,2.3,1.17,4.18,3,4.18S405.23,250,405.23,247.66Z" transform="translate(0 -0.92)" style="fill:#fff"/><path d="M30.78,221.39a245.21,245.21,0,0,1,206.13-193q0-.25,0-0.49A245.77,245.77,0,0,0,30.3,221.28Z" transform="translate(0 -0.92)" style="fill:#fff"/><path d="M513.83,320.35a245.21,245.21,0,0,1-206.13,193q0,0.25,0,.49A245.77,245.77,0,0,0,514.3,320.45Z" transform="translate(0 -0.92)" style="fill:#fff"/></svg>