<svg id="843b931d-1c06-4b95-94f4-2d9dd70da5c7" data-name="Layer 1" xmlns="http://www.w3.org/2000/svg" viewBox="0 0 232.2 495.83"><title>icon-speaker-updated</title><path d="M55.06,392.33h-20V339.8H0.12c-0.06,28.91-.25,124.42,0,131.47l0.07,1.88,1.06,1.56c5.11,7.54,18.79,12.77,43.07,16.48,19.55,3,44.85,4.63,71.24,4.63s51.79-1.64,71.53-4.63c24.39-3.69,38.3-8.85,43.79-16.25l1.29-1.75V339.8H55.06v52.53Z" style="fill:#fff"/><path d="M230.9,20.88c-5.49-7.4-19.4-12.57-43.79-16.25C167.37,1.64,142,0,115.59,0S63.9,1.64,44.34,4.63c-24.28,3.71-38,8.94-43.07,16.48L0.21,22.67,0.14,24.55C-0.14,32,.08,270.92.13,322.41H232.2V22.63Z" style="fill:#fff"/></svg>