<svg id="6030259c-4632-400a-a678-87a76b5733a2" data-name="Layer 1" xmlns="http://www.w3.org/2000/svg" viewBox="0 0 226.67 226.67"><title>replay</title><path d="M155.6,78.47l9.88-8.74-34.44-9L135.79,96l10.08-8.92a41.54,41.54,0,1,1-60-5.27c0.85-.75,1.73-1.45,2.62-2.12L81.11,69c-1.32,1-2.61,2-3.86,3.1A54.53,54.53,0,1,0,155.6,78.47Z" style="fill:#fff"/><path d="M113.33,226.67A113.33,113.33,0,1,1,226.67,113.33,113.46,113.46,0,0,1,113.33,226.67Zm0-224.55A111.21,111.21,0,1,0,224.55,113.33,111.34,111.34,0,0,0,113.33,2.12Z" style="fill:#fff"/></svg>