<svg id="Layer_1" data-name="Layer 1" xmlns="http://www.w3.org/2000/svg" viewBox="0 0 20.87 16.96"><defs><style>.cls-1{fill:#fff;}</style></defs><title>twitter</title><path class="cls-1" d="M29.44,12.53A8.56,8.56,0,0,1,27,13.2a4.29,4.29,0,0,0,1.88-2.37,8.57,8.57,0,0,1-2.72,1,4.29,4.29,0,0,0-7.3,3.91A12.16,12.16,0,0,1,10,11.3,4.29,4.29,0,0,0,11.34,17a4.26,4.26,0,0,1-1.94-.54v0.05a4.28,4.28,0,0,0,3.43,4.2,4.29,4.29,0,0,1-1.93.07,4.29,4.29,0,0,0,4,3,8.59,8.59,0,0,1-5.32,1.83,8.72,8.72,0,0,1-1-.06A12.18,12.18,0,0,0,27.31,15.3q0-.28,0-0.55A8.7,8.7,0,0,0,29.44,12.53Z" transform="translate(-8.56 -10.52)"/></svg>