<svg id="36575d4b-bc33-4e28-accd-47ed118d1aa3" data-name="Layer 1" xmlns="http://www.w3.org/2000/svg" viewBox="0 0 39.29 83.94"><title>social--zipp</title><path d="M31.68,0.78A84.87,84.87,0,0,0,19.57,0,83.8,83.8,0,0,0,7.5.78C3.39,1.41,1.07,2.29.2,3.57L0,3.83V4.11c-0.05,1.39,0,50,0,52C0,57,0,78.37,0,79.74v0.37L0.2,80.37c0.87,1.28,3.18,2.16,7.29,2.79a83.78,83.78,0,0,0,12.07.78,84.86,84.86,0,0,0,12.11-.78c4.13-.62,6.49-1.5,7.42-2.75l0.2-.3V3.82l-0.22-.3C38.17,2.28,35.81,1.4,31.68.78Zm5.4,3.87V55.11H2.29V4.67c1.42-1.2,7.77-2.4,17.33-2.4,8.39-.05,15.67,1,17.46,2.37h0ZM9.23,66v-8.6H11V66H9.23Zm4,2.23V57.3H37.11v22c-1.56,1.21-8,2.42-17.52,2.42s-15.91-1.2-17.33-2.4v-22H7V68.26h6.2v0Z" style="fill:#fff"/></svg>