<svg id="e8af2c55-f649-45cf-a939-7ce147bf206a" data-name="Layer 1" xmlns="http://www.w3.org/2000/svg" viewBox="0 0 328 78"><title>apple-music</title><path d="M52.24,41.84Q52.09,32.33,60.46,27q-4.72-6.86-13.92-7.72a19.9,19.9,0,0,0-8.37,1.56,41,41,0,0,1-6.16,2,18.51,18.51,0,0,1-5.56-1.72,18.8,18.8,0,0,0-7-1.72,17.34,17.34,0,0,0-9.06,2.69A19.27,19.27,0,0,0,3.7,29.28,26.69,26.69,0,0,0,.5,42.7a43.88,43.88,0,0,0,2.36,14A47.39,47.39,0,0,0,8.49,68.52a37.92,37.92,0,0,0,5.33,6.71q3.28,3.27,6.7,3.12a17,17,0,0,0,5.78-1.64A16.49,16.49,0,0,1,33,75.23a16,16,0,0,1,6.47,1.48,16.64,16.64,0,0,0,6.09,1.56,10.07,10.07,0,0,0,6.55-3,18.48,18.48,0,0,0,2.32-2.58q1.26-1.64,2.78-3.9,1.06-1.64,2.09-3.51a35.3,35.3,0,0,0,1.86-4q0.38-.86.68-1.75c0.2-.6.4-1.21,0.61-1.83A17.31,17.31,0,0,1,52.24,41.84Z" transform="translate(-0.5 -0.5)" style="fill:#fff"/><polygon points="106.92 55.25 106.55 55.25 91.1 19.94 78.96 19.94 78.96 76.91 89.54 76.91 89.54 40.01 90.03 40.01 102.94 69.31 110.36 69.31 123.23 40.01 123.73 40.01 123.73 76.91 134.43 76.91 134.43 19.94 122.37 19.94 106.92 55.25" style="fill:#fff"/><path d="M42.65,13a17.21,17.21,0,0,0,4-10.92V1.28A4.12,4.12,0,0,0,46.61.5a14.88,14.88,0,0,0-6,1.79,16.57,16.57,0,0,0-5.21,4.14A16.15,16.15,0,0,0,31.32,17V17.7a4,4,0,0,0,.08.74Q37.71,19.07,42.65,13Z" transform="translate(-0.5 -0.5)" style="fill:#fff"/><rect x="258.03" y="19.94" width="11.89" height="56.98" style="fill:#fff"/><path d="M306.32,29.49c7,0,10.78,5.43,10.78,11.27h11.4V39.55c0-11-8.4-20.2-22.26-20.2-14.84,0-23.69,9.77-23.69,26.42V52.2c0,16.65,8.77,26.3,23.65,26.3,14.23,0,22.3-9.31,22.3-19.66V57.59H317.1c0,5.89-3.65,10.77-10.7,10.77-7.22,0-11.81-5.14-11.81-16.11V45.82C294.6,34.88,299.23,29.49,306.32,29.49Z" transform="translate(-0.5 -0.5)" style="fill:#fff"/><path d="M180.39,56.42c0,7.64-4.47,11.85-11,11.85S158.3,64.1,158.3,56.42v-36H146.49V58.09c0,12.15,8.61,20.41,22.87,20.41s22.87-8.26,22.87-20.41V20.44H180.39v36Z" transform="translate(-0.5 -0.5)" style="fill:#fff"/><path d="M231.56,44.23l-8.48-1.92c-5-1-7.62-3.26-7.62-6.56,0-4.38,3.57-7.14,9.31-7.14,6.48,0,9.71,3.72,10,7.72h11.07c-0.12-10.06-8.52-17.07-21-17.07-11.85,0-21.19,6.22-21.19,17.41,0,9.68,6.56,14.19,14.43,15.9l8.4,2c5.66,1.29,8.53,3.17,8.53,7.05C235,66,231.44,69,224.84,69c-7.09,0-10.82-3.76-11.15-8H202.3c0.17,8.06,5.49,17.45,22,17.45,13.85,0,22.42-6.89,22.42-18.08C246.69,50.07,239.76,46,231.56,44.23Z" transform="translate(-0.5 -0.5)" style="fill:#fff"/></svg>