<svg id="RAW_ICONS_-_SQUARE_ROUNDED_CIRCLE" data-name="RAW ICONS - SQUARE / ROUNDED / CIRCLE" xmlns="http://www.w3.org/2000/svg" viewBox="0 0 48.08 48.08"><defs><style>.cls-1{fill:#fff;}.cls-2{fill:#1d1d1b;}</style></defs><title>twitter-test</title><circle class="cls-1" cx="24.04" cy="24.04" r="24.04"/><path class="cls-2" d="M49.73,28.33c0,0.31,0,.63,0,0.94C49.75,38.92,42.41,50,29,50a20.66,20.66,0,0,1-11.19-3.28,15.4,15.4,0,0,0,1.74.1,14.63,14.63,0,0,0,9.07-3.12,7.31,7.31,0,0,1-6.82-5.07,7.5,7.5,0,0,0,1.37.13,7.36,7.36,0,0,0,1.92-.26,7.31,7.31,0,0,1-5.86-7.16V31.3a7.29,7.29,0,0,0,3.31.91,7.31,7.31,0,0,1-2.26-9.75,20.72,20.72,0,0,0,15,7.63,7.31,7.31,0,0,1,12.44-6.66,14.57,14.57,0,0,0,4.64-1.77,7.32,7.32,0,0,1-3.21,4,14.57,14.57,0,0,0,4.19-1.15A14.8,14.8,0,0,1,49.73,28.33Z" transform="translate(-13.44 -11.86)"/></svg>