<?xml version="1.0" encoding="utf-8"?>
<!-- Generator: Adobe Illustrator 19.2.0, SVG Export Plug-In . SVG Version: 6.00 Build 0)  -->
<svg version="1.1" id="Layer_1" xmlns="http://www.w3.org/2000/svg" xmlns:xlink="http://www.w3.org/1999/xlink" x="0px" y="0px"
	 viewBox="0 0 40 80" style="enable-background:new 0 0 40 80;" xml:space="preserve">
<style type="text/css">
	.st0{fill:#FFFFFF;}
</style>
<g>
	<polygon class="st0" points="14.3,56.9 9.9,56.9 9.9,63.3 14.2,63.3 19.9,66.9 19.9,60.2 19.9,53.6 	"/>
	<polygon class="st0" points="30.1,57.7 29,56.6 26.6,59 24.2,56.6 23.1,57.7 25.5,60.1 23.1,62.5 24.2,63.6 26.6,61.2 29,63.6 
		30.1,62.5 27.7,60.1 	"/>
</g>
<g>
	<g>
		<polygon class="st0" points="14.3,16.9 9.9,16.9 9.9,23.3 14.2,23.3 19.9,26.9 19.9,20.2 19.9,13.6 		"/>
	</g>
	<g>
		<path class="st0" d="M23.2,23.3l-0.9-0.5c0.9-1.6,0.9-3.3,0-5.1l0.9-0.5C24.3,19.4,24.3,21.4,23.2,23.3z"/>
	</g>
	<g>
		<path class="st0" d="M26.1,24.6l-0.9-0.5c1.4-2.4,1.4-4.9,0-7.7l0.9-0.5C27.6,19,27.6,21.9,26.1,24.6z"/>
	</g>
	<g>
		<path class="st0" d="M29.1,26.1l-0.9-0.5c1.9-3.3,1.9-6.9,0-10.6l0.9-0.5C31.2,18.5,31.2,22.4,29.1,26.1z"/>
	</g>
</g>
</svg>
