<svg id="8c919acb-52e4-459f-b43a-993a27418eac" data-name="Layer 1" xmlns="http://www.w3.org/2000/svg" viewBox="0 0 273.45 63.53"><title>EF_L_circletext</title><path d="M158.16,215.15l3-3.62c2.76,2.39,5.51,3.75,9.1,3.75,3.13,0,5.1-1.44,5.1-3.62v-0.08c0-2.06-1.15-3.17-6.5-4.4-6.13-1.48-9.59-3.29-9.59-8.6v-0.08c0-4.94,4.12-8.35,9.84-8.35a16,16,0,0,1,10.45,3.62l-2.72,3.83a13.08,13.08,0,0,0-7.82-3c-3,0-4.69,1.52-4.69,3.42v0.08c0,2.22,1.32,3.21,6.83,4.53,6.09,1.48,9.26,3.66,9.26,8.44v0.08c0,5.39-4.24,8.6-10.29,8.6A17.75,17.75,0,0,1,158.16,215.15Z" transform="translate(-133.9 -190.12)" style="fill:#fafafa"/><path d="M207,190.54h5.06v12h13.75v-12h5.06v28.81h-5.06V207.2H212.07v12.14H207V190.54Z" transform="translate(-133.9 -190.12)" style="fill:#fafafa"/><path d="M269.07,190.33h4.69l12.68,29h-5.35l-2.92-7H264.54l-3,7h-5.19Zm7.24,17.57-5-11.52-4.94,11.52h9.92Z" transform="translate(-133.9 -190.12)" style="fill:#fafafa"/><path d="M312,190.54h12.84c3.62,0,6.46,1.07,8.31,2.88a8.71,8.71,0,0,1,2.39,6.21v0.08c0,4.73-2.84,7.57-6.87,8.73l7.78,10.91h-6l-7.08-10H317v10H312V190.54Zm12.47,14.28c3.62,0,5.93-1.89,5.93-4.81v-0.08c0-3.09-2.22-4.77-6-4.77H317v9.67h7.41Z" transform="translate(-133.9 -190.12)" style="fill:#fafafa"/><path d="M362.28,190.54h21.36v4.53h-16.3v7.49h14.45v4.53H367.34v7.74h16.5v4.53H362.28V190.54Z" transform="translate(-133.9 -190.12)" style="fill:#fafafa"/><path d="M133.9,241.8h1.9l6.24,8.06V241.8h2v11.65h-1.71l-6.43-8.29v8.29h-2V241.8Z" transform="translate(-133.9 -190.12)" style="fill:#fafafa"/><path d="M155.5,241.8h2v11.65h-2V241.8Z" transform="translate(-133.9 -190.12)" style="fill:#fafafa"/><path d="M168.48,247.66v0a5.94,5.94,0,0,1,6-6,6.29,6.29,0,0,1,4.48,1.58l-1.3,1.55a4.57,4.57,0,0,0-3.26-1.25,3.94,3.94,0,0,0-3.78,4.11v0a3.89,3.89,0,0,0,4,4.16,4.76,4.76,0,0,0,2.81-.88v-2.18h-3v-1.78h5v4.89a7.43,7.43,0,0,1-4.86,1.82A5.78,5.78,0,0,1,168.48,247.66Z" transform="translate(-133.9 -190.12)" style="fill:#fafafa"/><path d="M190.37,241.8h2v4.84H198V241.8h2v11.65h-2v-4.91h-5.56v4.91h-2V241.8Z" transform="translate(-133.9 -190.12)" style="fill:#fafafa"/><path d="M214.22,243.7h-3.7v-1.9H220v1.9h-3.7v9.75h-2.06V243.7Z" transform="translate(-133.9 -190.12)" style="fill:#fafafa"/><path d="M230.59,241.8h2v11.65h-2V241.8Z" transform="translate(-133.9 -190.12)" style="fill:#fafafa"/><path d="M244.08,241.8H246l6.24,8.06V241.8h2v11.65h-1.71l-6.43-8.29v8.29h-2V241.8Z" transform="translate(-133.9 -190.12)" style="fill:#fafafa"/><path d="M265,247.66v0a5.94,5.94,0,0,1,6-6,6.29,6.29,0,0,1,4.48,1.58l-1.3,1.55a4.57,4.57,0,0,0-3.26-1.25,3.94,3.94,0,0,0-3.78,4.11v0a3.89,3.89,0,0,0,4,4.16,4.76,4.76,0,0,0,2.81-.88v-2.18h-3v-1.78h5v4.89a7.43,7.43,0,0,1-4.86,1.82A5.78,5.78,0,0,1,265,247.66Z" transform="translate(-133.9 -190.12)" style="fill:#fafafa"/><path d="M291.08,241.72H293l5.13,11.74h-2.16l-1.18-2.81h-5.51l-1.2,2.81h-2.1Zm2.93,7.11-2-4.66-2,4.66h4Z" transform="translate(-133.9 -190.12)" style="fill:#fafafa"/><path d="M308.43,241.8h2v9.79h6.13v1.86h-8.17V241.8Z" transform="translate(-133.9 -190.12)" style="fill:#fafafa"/><path d="M327.07,241.8h8.64v1.83h-6.59v3H335v1.83h-5.84v3.13h6.68v1.83h-8.72V241.8Z" transform="translate(-133.9 -190.12)" style="fill:#fafafa"/><path d="M359.09,251.61l1.43-1.33a3.8,3.8,0,0,0,3.06,1.53,1.82,1.82,0,0,0,2-1.76v0c0-1.15-1-1.8-2.68-1.8H362l-0.33-1.28,3.15-3.35h-5V241.8h7.71v1.53l-3.25,3.33c1.76,0.23,3.43,1.12,3.43,3.28v0c0,2.15-1.67,3.68-4.08,3.68A5.53,5.53,0,0,1,359.09,251.61Z" transform="translate(-133.9 -190.12)" style="fill:#fafafa"/><path d="M379.36,252.44c-0.88-.9-1.42-2.11-1.42-4.46v0c0-3.56,1.7-6.34,5-6.34a5.28,5.28,0,0,1,3.56,1.3l-1.1,1.58a3.87,3.87,0,0,0-2.53-1c-1.73,0-2.7,1.56-2.8,3.7a3.71,3.71,0,0,1,2.78-1.17c2.26,0,4.08,1.33,4.08,3.66v0a4,4,0,0,1-4.33,4A4.4,4.4,0,0,1,379.36,252.44Zm5.53-2.66v0a2.12,2.12,0,0,0-2.38-2,2.15,2.15,0,0,0-2.36,2v0a2.18,2.18,0,0,0,2.41,2.1A2.12,2.12,0,0,0,384.88,249.78Z" transform="translate(-133.9 -190.12)" style="fill:#fafafa"/><path d="M397.19,247.66v0c0-3.33,2-6,5.09-6s5.06,2.66,5.06,6v0c0,3.33-2,6-5.09,6S397.19,251,397.19,247.66Zm8,0v0c0-2.3-1.18-4.18-3-4.18s-2.95,1.83-2.95,4.14v0c0,2.3,1.17,4.18,3,4.18S405.23,250,405.23,247.66Z" transform="translate(-133.9 -190.12)" style="fill:#fafafa"/></svg>