<svg id="159c3e32-5db8-4d16-8bd2-a43d07c0b067" data-name="Layer 1" xmlns="http://www.w3.org/2000/svg" viewBox="0 0 542.95 542.95"><title>EF outer</title><path d="M824,45.36L819.8,38,819,38.5l4.24,7.34Z" transform="translate(-683.64 -1.89)" style="fill:#fafafa"/><path d="M816.16,50.08l-4.49-7.19-0.83.52,4.49,7.19Z" transform="translate(-683.64 -1.89)" style="fill:#fafafa"/><path d="M832.09,40.95l-4-7.51-0.86.46,4,7.51Z" transform="translate(-683.64 -1.89)" style="fill:#fafafa"/><path d="M848.61,33l-3.47-7.8-0.89.4,3.47,7.79Z" transform="translate(-683.64 -1.89)" style="fill:#fafafa"/><path d="M840.27,36.79l-3.73-7.64-0.88.43,3.73,7.65Z" transform="translate(-683.64 -1.89)" style="fill:#fafafa"/><path d="M808.44,55l-4.73-7-0.81.54,4.73,7Z" transform="translate(-683.64 -1.89)" style="fill:#fafafa"/><path d="M786.41,71.55L781,65.09l-0.75.63,5.43,6.47Z" transform="translate(-683.64 -1.89)" style="fill:#fafafa"/><path d="M779.47,77.56l-5.64-6.27-0.72.65,5.64,6.26Z" transform="translate(-683.64 -1.89)" style="fill:#fafafa"/><path d="M800.91,60.29l-5-6.84-0.79.57,5,6.84Z" transform="translate(-683.64 -1.89)" style="fill:#fafafa"/><path d="M793.56,65.8l-5.2-6.66-0.77.6,5.2,6.65Z" transform="translate(-683.64 -1.89)" style="fill:#fafafa"/><path d="M919,13.17l-1.22-8.7-1,.14,1.22,8.7Z" transform="translate(-683.64 -1.89)" style="fill:#fafafa"/><path d="M772.73,83.8l-5.84-6.05-0.7.68L772,84.48Z" transform="translate(-683.64 -1.89)" style="fill:#fafafa"/><path d="M857.07,29.4l-3.2-7.93-0.9.37,3.2,7.93Z" transform="translate(-683.64 -1.89)" style="fill:#fafafa"/><path d="M928.14,12.1l-0.92-8.77-1,.1,0.92,8.76Z" transform="translate(-683.64 -1.89)" style="fill:#fafafa"/><path d="M937.28,11.37l-0.62-8.85-1,.07,0.62,8.85Z" transform="translate(-683.64 -1.89)" style="fill:#fafafa"/><path d="M901,16.22l-1.81-8.5-1,.2L900,16.43Z" transform="translate(-683.64 -1.89)" style="fill:#fafafa"/><path d="M910,14.54l-1.52-8.61-1,.17L909,14.7Z" transform="translate(-683.64 -1.89)" style="fill:#fafafa"/><path d="M692.12,272.88h-8.48v1h8.49C692.13,273.53,692.12,273.21,692.12,272.88Z" transform="translate(-683.64 -1.89)" style="fill:#fafafa"/><path d="M874.35,23.21L871.69,15l-0.93.3,2.66,8.18Z" transform="translate(-683.64 -1.89)" style="fill:#fafafa"/><path d="M892,18.25l-2.1-8.41-0.95.24,2.1,8.41Z" transform="translate(-683.64 -1.89)" style="fill:#fafafa"/><path d="M946.44,10.94L946.13,2l-1,0,0.31,8.9Z" transform="translate(-683.64 -1.89)" style="fill:#fafafa"/><path d="M883.13,20.56l-2.38-8.29-0.94.27,2.38,8.28Z" transform="translate(-683.64 -1.89)" style="fill:#fafafa"/><path d="M702.28,200.36l-8-2.29L694,199l8,2.29Z" transform="translate(-683.64 -1.89)" style="fill:#fafafa"/><path d="M699.91,209.24l-8.09-2-0.24.95,8.1,2Z" transform="translate(-683.64 -1.89)" style="fill:#fafafa"/><path d="M705,191.58L697.08,189l-0.3.93,7.91,2.57Z" transform="translate(-683.64 -1.89)" style="fill:#fafafa"/><path d="M697.84,218.18l-8.17-1.74-0.2,1,8.17,1.74C697.7,218.82,697.78,218.5,697.84,218.18Z" transform="translate(-683.64 -1.89)" style="fill:#fafafa"/><path d="M708,182.89l-7.79-2.84-0.33.92,7.8,2.84C707.76,183.51,707.86,183.2,708,182.89Z" transform="translate(-683.64 -1.89)" style="fill:#fafafa"/><path d="M711.29,174.33l-7.7-3.11-0.37.9,7.7,3.11Z" transform="translate(-683.64 -1.89)" style="fill:#fafafa"/><path d="M692.29,263.7l-8.47-.3,0,1,8.47,0.3C692.26,264.35,692.28,264,692.29,263.7Z" transform="translate(-683.64 -1.89)" style="fill:#fafafa"/><path d="M692.76,254.53l-8.43-.59-0.07,1,8.44,0.59C692.72,255.18,692.74,254.86,692.76,254.53Z" transform="translate(-683.64 -1.89)" style="fill:#fafafa"/><path d="M693.55,245.39l-8.37-.88-0.1,1,8.37,0.88C693.48,246,693.51,245.71,693.55,245.39Z" transform="translate(-683.64 -1.89)" style="fill:#fafafa"/><path d="M766.22,90.28l-6.05-5.84-0.68.7,6,5.84Z" transform="translate(-683.64 -1.89)" style="fill:#fafafa"/><path d="M694.67,236.27l-8.32-1.17-0.14,1,8.32,1.17Z" transform="translate(-683.64 -1.89)" style="fill:#fafafa"/><path d="M696.09,227.2l-8.24-1.45-0.17,1,8.25,1.45C696,227.84,696,227.52,696.09,227.2Z" transform="translate(-683.64 -1.89)" style="fill:#fafafa"/><path d="M748.07,111l-6.59-5.15-0.6.77,6.59,5.15Z" transform="translate(-683.64 -1.89)" style="fill:#fafafa"/><path d="M742.54,118.32l-6.77-4.92-0.57.79,6.76,4.91Z" transform="translate(-683.64 -1.89)" style="fill:#fafafa"/><path d="M737.24,125.82l-6.91-4.66-0.54.81,6.91,4.66Z" transform="translate(-683.64 -1.89)" style="fill:#fafafa"/><path d="M753.89,103.88l-6.43-5.39-0.63.75,6.42,5.39Z" transform="translate(-683.64 -1.89)" style="fill:#fafafa"/><path d="M759.93,97l-6.23-5.61-0.65.72,6.24,5.62Z" transform="translate(-683.64 -1.89)" style="fill:#fafafa"/><path d="M727.46,141.37l-7.21-4.16-0.49.84,7.2,4.16Z" transform="translate(-683.64 -1.89)" style="fill:#fafafa"/><path d="M718.79,157.56l-7.47-3.64-0.43.88,7.46,3.64Z" transform="translate(-683.64 -1.89)" style="fill:#fafafa"/><path d="M723,149.39l-7.34-3.9-0.46.86,7.34,3.9Z" transform="translate(-683.64 -1.89)" style="fill:#fafafa"/><path d="M714.89,165.88l-7.58-3.38-0.4.89,7.59,3.38Z" transform="translate(-683.64 -1.89)" style="fill:#fafafa"/><path d="M732.22,133.51l-7.07-4.42-0.52.83,7.07,4.42Z" transform="translate(-683.64 -1.89)" style="fill:#fafafa"/><path d="M865.65,26.15l-2.93-8.06-0.92.33,2.93,8Z" transform="translate(-683.64 -1.89)" style="fill:#fafafa"/><path d="M955.6,10.83V1.89h-1v8.93h1Z" transform="translate(-683.64 -1.89)" style="fill:#fafafa"/><path d="M1143.71,91.92l7-6.79-0.68-.7-7,6.79Z" transform="translate(-683.64 -1.89)" style="fill:#fafafa"/><path d="M1181.83,143l8.64-5-0.49-.84-8.63,5Z" transform="translate(-683.64 -1.89)" style="fill:#fafafa"/><path d="M1190.33,159.19l9-4.39-0.43-.88-9,4.39Z" transform="translate(-683.64 -1.89)" style="fill:#fafafa"/><path d="M1194.13,167.48l9.19-4.09-0.4-.89-9.18,4.09Z" transform="translate(-683.64 -1.89)" style="fill:#fafafa"/><path d="M1161.55,112.7l7.79-6.08-0.6-.77-7.78,6.08Z" transform="translate(-683.64 -1.89)" style="fill:#fafafa"/><path d="M1155.85,105.57l7.54-6.33-0.63-.75-7.54,6.33Z" transform="translate(-683.64 -1.89)" style="fill:#fafafa"/><path d="M1149.89,98.65l7.3-6.57-0.65-.72-7.3,6.57Z" transform="translate(-683.64 -1.89)" style="fill:#fafafa"/><path d="M1172.22,127.52l8.23-5.55-0.54-.81-8.22,5.55Z" transform="translate(-683.64 -1.89)" style="fill:#fafafa"/><path d="M1167,120l8-5.82-0.57-.79-8,5.82Z" transform="translate(-683.64 -1.89)" style="fill:#fafafa"/><path d="M1197.67,175.9l9.34-3.77-0.37-.9L1197.3,175Z" transform="translate(-683.64 -1.89)" style="fill:#fafafa"/><path d="M1177.15,135.2l8.45-5.28-0.52-.83-8.45,5.28Z" transform="translate(-683.64 -1.89)" style="fill:#fafafa"/><path d="M1213.82,237.5l10.2-1.43-0.14-1-10.2,1.43C1213.73,236.86,1213.78,237.18,1213.82,237.5Z" transform="translate(-683.64 -1.89)" style="fill:#fafafa"/><path d="M1214.89,246.55l10.26-1.08-0.1-1-10.26,1.08Z" transform="translate(-683.64 -1.89)" style="fill:#fafafa"/><path d="M1216.06,264.74l10.38-.36,0-1-10.38.36C1216,264.09,1216.05,264.42,1216.06,264.74Z" transform="translate(-683.64 -1.89)" style="fill:#fafafa"/><path d="M1212.44,228.49l10.11-1.78-0.17-1-10.1,1.78C1212.34,227.85,1212.39,228.17,1212.44,228.49Z" transform="translate(-683.64 -1.89)" style="fill:#fafafa"/><path d="M1200.89,184.43l9.5-3.46-0.33-.92-9.49,3.45Z" transform="translate(-683.64 -1.89)" style="fill:#fafafa"/><path d="M1215.62,255.64l10.34-.72-0.07-1-10.33.72C1215.58,255,1215.6,255.32,1215.62,255.64Z" transform="translate(-683.64 -1.89)" style="fill:#fafafa"/><path d="M1203.82,193.07l9.64-3.13-0.3-.93-9.64,3.13Z" transform="translate(-683.64 -1.89)" style="fill:#fafafa"/><path d="M1206.45,201.81l9.76-2.8-0.27-.94-9.75,2.8Z" transform="translate(-683.64 -1.89)" style="fill:#fafafa"/><path d="M1210.76,219.53l10-2.12-0.2-1-10,2.13C1210.62,218.89,1210.7,219.21,1210.76,219.53Z" transform="translate(-683.64 -1.89)" style="fill:#fafafa"/><path d="M1208.75,210.63l9.9-2.47-0.24-.95-9.89,2.47Z" transform="translate(-683.64 -1.89)" style="fill:#fafafa"/><path d="M1186.21,151l8.84-4.7-0.46-.86-8.84,4.7Z" transform="translate(-683.64 -1.89)" style="fill:#fafafa"/><path d="M1019.06,18.92l2.21-8.85-0.95-.24-2.21,8.85Z" transform="translate(-683.64 -1.89)" style="fill:#fafafa"/><path d="M1001.16,15l1.57-8.93-1-.17-1.57,8.92Z" transform="translate(-683.64 -1.89)" style="fill:#fafafa"/><path d="M1010.14,16.83L1012,7.92l-1-.2-1.89,8.9Z" transform="translate(-683.64 -1.89)" style="fill:#fafafa"/><path d="M1036.63,24.07l2.84-8.74-0.93-.3-2.84,8.74Z" transform="translate(-683.64 -1.89)" style="fill:#fafafa"/><path d="M1137.27,85.44l6.78-7-0.7-.68-6.77,7Z" transform="translate(-683.64 -1.89)" style="fill:#fafafa"/><path d="M973.91,11.55l0.63-9-1-.07-0.63,9Z" transform="translate(-683.64 -1.89)" style="fill:#fafafa"/><path d="M1045.27,27.1l3.16-8.67-0.92-.33-3.15,8.66Z" transform="translate(-683.64 -1.89)" style="fill:#fafafa"/><path d="M964.76,11l0.31-9-1,0-0.31,9Z" transform="translate(-683.64 -1.89)" style="fill:#fafafa"/><path d="M983,12.41l0.94-9-1-.1-0.94,9Z" transform="translate(-683.64 -1.89)" style="fill:#fafafa"/><path d="M992.12,13.56l1.26-9-1-.14-1.26,9Z" transform="translate(-683.64 -1.89)" style="fill:#fafafa"/><path d="M1027.89,21.35l2.53-8.81-0.94-.27-2.52,8.8Z" transform="translate(-683.64 -1.89)" style="fill:#fafafa"/><path d="M1109.44,61.78l5.64-7.76-0.79-.57-5.63,7.76Z" transform="translate(-683.64 -1.89)" style="fill:#fafafa"/><path d="M1102,56.49l5.34-7.91-0.81-.54-5.33,7.9Z" transform="translate(-683.64 -1.89)" style="fill:#fafafa"/><path d="M1116.71,67.33l5.93-7.59-0.77-.6L1116,66.71Z" transform="translate(-683.64 -1.89)" style="fill:#fafafa"/><path d="M1130.64,79.16l6.49-7.21-0.72-.65-6.49,7.21Z" transform="translate(-683.64 -1.89)" style="fill:#fafafa"/><path d="M1123.77,73.13l6.22-7.41-0.75-.63L1123,72.5Z" transform="translate(-683.64 -1.89)" style="fill:#fafafa"/><path d="M1053.79,30.44l3.47-8.6-0.9-.37-3.47,8.6Z" transform="translate(-683.64 -1.89)" style="fill:#fafafa"/><path d="M1070.46,38l4.1-8.41-0.88-.43-4.1,8.41Z" transform="translate(-683.64 -1.89)" style="fill:#fafafa"/><path d="M1086.55,46.69l4.73-8.19-0.84-.49-4.72,8.18Z" transform="translate(-683.64 -1.89)" style="fill:#fafafa"/><path d="M1062.2,34.06l3.78-8.5-0.89-.4-3.78,8.5Z" transform="translate(-683.64 -1.89)" style="fill:#fafafa"/><path d="M1078.59,42.19L1083,33.9l-0.86-.46-4.41,8.3Z" transform="translate(-683.64 -1.89)" style="fill:#fafafa"/><path d="M1094.36,51.45l5-8.05-0.83-.52-5,8.05Z" transform="translate(-683.64 -1.89)" style="fill:#fafafa"/><path d="M1100.72,490.11l5.8,8.59,0.81-.54-5.8-8.6Z" transform="translate(-683.64 -1.89)" style="fill:#fafafa"/><path d="M1085.27,499.78l5.16,8.94,0.84-.49-5.16-8.94Z" transform="translate(-683.64 -1.89)" style="fill:#fafafa"/><path d="M1093.07,495.07l5.49,8.78,0.83-.52-5.49-8.78Z" transform="translate(-683.64 -1.89)" style="fill:#fafafa"/><path d="M1077.3,504.2l4.83,9.09,0.86-.46-4.83-9.09Z" transform="translate(-683.64 -1.89)" style="fill:#fafafa"/><path d="M1069.18,508.36l4.5,9.23,0.88-.43-4.5-9.23Z" transform="translate(-683.64 -1.89)" style="fill:#fafafa"/><path d="M1060.93,512.22l4.16,9.35,0.89-.4-4.16-9.34Z" transform="translate(-683.64 -1.89)" style="fill:#fafafa"/><path d="M1129.41,467.67l7,7.77,0.72-.65-7-7.77Z" transform="translate(-683.64 -1.89)" style="fill:#fafafa"/><path d="M1136.07,461.45l7.28,7.54,0.7-.68-7.28-7.54Z" transform="translate(-683.64 -1.89)" style="fill:#fafafa"/><path d="M1115.45,479.38l6.41,8.21,0.77-.6-6.41-8.21Z" transform="translate(-683.64 -1.89)" style="fill:#fafafa"/><path d="M1122.53,473.64l6.72,8L1130,481l-6.72-8Z" transform="translate(-683.64 -1.89)" style="fill:#fafafa"/><path d="M1108.17,484.86l6.12,8.42,0.79-.57-6.12-8.42Z" transform="translate(-683.64 -1.89)" style="fill:#fafafa"/><path d="M1044,519.08l3.48,9.56,0.92-.33-3.48-9.56Z" transform="translate(-683.64 -1.89)" style="fill:#fafafa"/><path d="M1009,529.14l2.1,9.87,1-.2-2.1-9.88Z" transform="translate(-683.64 -1.89)" style="fill:#fafafa"/><path d="M1000,530.89l1.75,9.91,1-.17-1.75-9.91Z" transform="translate(-683.64 -1.89)" style="fill:#fafafa"/><path d="M991,532.31l1.4,10,1-.14-1.4-10Z" transform="translate(-683.64 -1.89)" style="fill:#fafafa"/><path d="M972.87,534.23l0.7,10,1-.07-0.7-10Z" transform="translate(-683.64 -1.89)" style="fill:#fafafa"/><path d="M982,533.43l1,10,1-.1-1-10Z" transform="translate(-683.64 -1.89)" style="fill:#fafafa"/><path d="M1026.68,524.73l2.79,9.73,0.94-.27-2.79-9.74Z" transform="translate(-683.64 -1.89)" style="fill:#fafafa"/><path d="M1142.51,455l7.55,7.29,0.68-.7-7.54-7.28Z" transform="translate(-683.64 -1.89)" style="fill:#fafafa"/><path d="M1017.87,527.09l2.45,9.81,0.95-.24-2.45-9.81Z" transform="translate(-683.64 -1.89)" style="fill:#fafafa"/><path d="M1035.4,522l3.14,9.66,0.93-.3-3.14-9.66Z" transform="translate(-683.64 -1.89)" style="fill:#fafafa"/><path d="M1052.53,515.79l3.83,9.47,0.9-.37-3.83-9.47Z" transform="translate(-683.64 -1.89)" style="fill:#fafafa"/><path d="M1200.24,363.11l9.81,3.57,0.33-.92-9.81-3.57Z" transform="translate(-683.64 -1.89)" style="fill:#fafafa"/><path d="M1208.28,337l10.13,2.52,0.24-.95L1208.51,336Z" transform="translate(-683.64 -1.89)" style="fill:#fafafa"/><path d="M963.75,534.71l0.35,10,1,0-0.35-10Z" transform="translate(-683.64 -1.89)" style="fill:#fafafa"/><path d="M1212.12,319.18l10.26,1.81,0.17-1-10.27-1.81C1212.22,318.54,1212.18,318.86,1212.12,319.18Z" transform="translate(-683.64 -1.89)" style="fill:#fafafa"/><path d="M1203.22,354.49l9.94,3.23,0.3-.93-9.94-3.23Z" transform="translate(-683.64 -1.89)" style="fill:#fafafa"/><path d="M1205.91,345.79l10,2.88,0.27-.94-10-2.87C1206.1,345.17,1206,345.48,1205.91,345.79Z" transform="translate(-683.64 -1.89)" style="fill:#fafafa"/><path d="M1210.35,328.12l10.21,2.17,0.2-1-10.21-2.17Z" transform="translate(-683.64 -1.89)" style="fill:#fafafa"/><path d="M1216.2,272.88c0,0.33,0,.65,0,1h10.4v-1H1216.2Z" transform="translate(-683.64 -1.89)" style="fill:#fafafa"/><path d="M1216,283l10.42,0.36,0-1L1216,282C1216,282.32,1216,282.64,1216,283Z" transform="translate(-683.64 -1.89)" style="fill:#fafafa"/><path d="M1213.54,310.18l10.34,1.45,0.14-1-10.34-1.45Z" transform="translate(-683.64 -1.89)" style="fill:#fafafa"/><path d="M1215.5,292.06l10.4,0.73,0.07-1-10.4-.73C1215.54,291.41,1215.52,291.74,1215.5,292.06Z" transform="translate(-683.64 -1.89)" style="fill:#fafafa"/><path d="M1214.68,301.14l10.37,1.09,0.1-1-10.37-1.09C1214.76,300.49,1214.71,300.82,1214.68,301.14Z" transform="translate(-683.64 -1.89)" style="fill:#fafafa"/><path d="M1196.94,371.6l9.7,3.92,0.37-.9-9.7-3.92Z" transform="translate(-683.64 -1.89)" style="fill:#fafafa"/><path d="M692.29,282.06l-8.51.3,0,1,8.51-.3C692.32,282.71,692.3,282.38,692.29,282.06Z" transform="translate(-683.64 -1.89)" style="fill:#fafafa"/><path d="M1171.21,419.71l8.7,5.87,0.54-.81-8.7-5.87Z" transform="translate(-683.64 -1.89)" style="fill:#fafafa"/><path d="M1166,427.16l8.5,6.18,0.57-.79-8.5-6.17Z" transform="translate(-683.64 -1.89)" style="fill:#fafafa"/><path d="M1154.72,441.49l8,6.75,0.63-.75-8-6.75Z" transform="translate(-683.64 -1.89)" style="fill:#fafafa"/><path d="M1160.47,434.43l8.27,6.46,0.6-.77-8.27-6.47Z" transform="translate(-683.64 -1.89)" style="fill:#fafafa"/><path d="M1193.37,380l9.55,4.25,0.4-.89-9.56-4.26Z" transform="translate(-683.64 -1.89)" style="fill:#fafafa"/><path d="M1180.9,404.29l9.08,5.24,0.49-.84-9.07-5.24Z" transform="translate(-683.64 -1.89)" style="fill:#fafafa"/><path d="M1189.49,388.22l9.41,4.59,0.43-.88-9.41-4.59Z" transform="translate(-683.64 -1.89)" style="fill:#fafafa"/><path d="M1148.74,448.36l7.8,7,0.65-.72-7.8-7Z" transform="translate(-683.64 -1.89)" style="fill:#fafafa"/><path d="M1185.33,396.33l9.25,4.92,0.46-.86-9.26-4.92Z" transform="translate(-683.64 -1.89)" style="fill:#fafafa"/><path d="M1176.18,412.08l8.9,5.56,0.52-.83-8.9-5.56Z" transform="translate(-683.64 -1.89)" style="fill:#fafafa"/><path d="M714.87,379.8l-8,3.54,0.4,0.89,8-3.54Z" transform="translate(-683.64 -1.89)" style="fill:#fafafa"/><path d="M727.41,404.27l-7.65,4.41,0.49,0.84,7.65-4.42Z" transform="translate(-683.64 -1.89)" style="fill:#fafafa"/><path d="M718.77,388.1l-7.87,3.84,0.43,0.88L719.2,389Z" transform="translate(-683.64 -1.89)" style="fill:#fafafa"/><path d="M722.95,396.26l-7.76,4.13,0.46,0.86,7.76-4.13Z" transform="translate(-683.64 -1.89)" style="fill:#fafafa"/><path d="M737.16,419.79l-7.38,5,0.54,0.81,7.39-5Z" transform="translate(-683.64 -1.89)" style="fill:#fafafa"/><path d="M732.16,412.11l-7.53,4.7,0.52,0.83,7.53-4.7Z" transform="translate(-683.64 -1.89)" style="fill:#fafafa"/><path d="M759.78,448.59L753,454.66l0.65,0.72,6.74-6.07Z" transform="translate(-683.64 -1.89)" style="fill:#fafafa"/><path d="M766,455.27l-6.56,6.33,0.68,0.7,6.56-6.34Z" transform="translate(-683.64 -1.89)" style="fill:#fafafa"/><path d="M742.45,427.28l-7.25,5.27,0.57,0.79,7.25-5.27Z" transform="translate(-683.64 -1.89)" style="fill:#fafafa"/><path d="M753.76,441.68l-6.93,5.81,0.63,0.75,6.93-5.81Z" transform="translate(-683.64 -1.89)" style="fill:#fafafa"/><path d="M772.53,461.73l-6.35,6.58,0.7,0.68,6.35-6.58Z" transform="translate(-683.64 -1.89)" style="fill:#fafafa"/><path d="M748,434.59l-7.08,5.53,0.6,0.77,7.09-5.54Z" transform="translate(-683.64 -1.89)" style="fill:#fafafa"/><path d="M694.67,309.48l-8.46,1.19,0.14,1,8.46-1.19Z" transform="translate(-683.64 -1.89)" style="fill:#fafafa"/><path d="M696.09,318.55L687.68,320l0.17,1,8.41-1.48C696.2,319.19,696.15,318.87,696.09,318.55Z" transform="translate(-683.64 -1.89)" style="fill:#fafafa"/><path d="M697.85,327.55l-8.38,1.78,0.2,1,8.39-1.78Z" transform="translate(-683.64 -1.89)" style="fill:#fafafa"/><path d="M693.55,300.37l-8.48.89,0.1,1,8.48-.89C693.63,301,693.58,300.69,693.55,300.37Z" transform="translate(-683.64 -1.89)" style="fill:#fafafa"/><path d="M692.77,291.22l-8.5.59,0.07,1,8.49-.59C692.8,291.87,692.79,291.55,692.77,291.22Z" transform="translate(-683.64 -1.89)" style="fill:#fafafa"/><path d="M702.28,345.36L694,347.73l0.27,0.94,8.27-2.37C702.47,346,702.37,345.67,702.28,345.36Z" transform="translate(-683.64 -1.89)" style="fill:#fafafa"/><path d="M708,362.81l-8.12,3,0.33,0.92,8.13-3Z" transform="translate(-683.64 -1.89)" style="fill:#fafafa"/><path d="M705,354.13l-8.21,2.67,0.3,0.93,8.21-2.67Z" transform="translate(-683.64 -1.89)" style="fill:#fafafa"/><path d="M699.91,336.49l-8.33,2.08,0.24,0.95,8.32-2.08C700.06,337.13,700,336.81,699.91,336.49Z" transform="translate(-683.64 -1.89)" style="fill:#fafafa"/><path d="M711.28,371.36l-8.06,3.25,0.37,0.9,8.06-3.26Z" transform="translate(-683.64 -1.89)" style="fill:#fafafa"/><path d="M786.16,474L780.24,481l0.75,0.63,5.92-7.06Z" transform="translate(-683.64 -1.89)" style="fill:#fafafa"/><path d="M891.3,527.29L889,536.66l0.95,0.24,2.34-9.37Z" transform="translate(-683.64 -1.89)" style="fill:#fafafa"/><path d="M900.21,529.33l-2,9.48,1,0.2,2-9.47Z" transform="translate(-683.64 -1.89)" style="fill:#fafafa"/><path d="M873.72,522.3l-3,9.1,0.93,0.3,3-9.1Z" transform="translate(-683.64 -1.89)" style="fill:#fafafa"/><path d="M882.46,525l-2.64,9.22,0.94,0.27,2.65-9.23Z" transform="translate(-683.64 -1.89)" style="fill:#fafafa"/><path d="M779.24,468l-6.15,6.83,0.72,0.65,6.15-6.83Z" transform="translate(-683.64 -1.89)" style="fill:#fafafa"/><path d="M936.38,534.29l-0.69,9.86,1,0.07,0.69-9.87Z" transform="translate(-683.64 -1.89)" style="fill:#fafafa"/><path d="M865.06,519.36l-3.26,9,0.92,0.33,3.26-9Z" transform="translate(-683.64 -1.89)" style="fill:#fafafa"/><path d="M945.5,534.74l-0.35,9.92,1,0,0.35-9.91Z" transform="translate(-683.64 -1.89)" style="fill:#fafafa"/><path d="M918.21,532.44l-1.36,9.7,1,0.14,1.36-9.7Z" transform="translate(-683.64 -1.89)" style="fill:#fafafa"/><path d="M927.28,533.54l-1,9.77,1,0.1,1-9.78Z" transform="translate(-683.64 -1.89)" style="fill:#fafafa"/><path d="M909.18,531l-1.69,9.59,1,0.17,1.69-9.6Z" transform="translate(-683.64 -1.89)" style="fill:#fafafa"/><path d="M815.79,495.41l-5,7.92,0.83,0.52,5-7.92Z" transform="translate(-683.64 -1.89)" style="fill:#fafafa"/><path d="M800.61,485.2l-5.46,7.51,0.79,0.57,5.46-7.51Z" transform="translate(-683.64 -1.89)" style="fill:#fafafa"/><path d="M808.1,490.45l-5.2,7.71,0.81,0.54,5.21-7.72Z" transform="translate(-683.64 -1.89)" style="fill:#fafafa"/><path d="M954.63,534.9v9.95h1v-10h-1Z" transform="translate(-683.64 -1.89)" style="fill:#fafafa"/><path d="M793.29,479.71L787.59,487l0.77,0.6,5.7-7.29Z" transform="translate(-683.64 -1.89)" style="fill:#fafafa"/><path d="M823.63,500.13l-4.68,8.1,0.84,0.49,4.68-8.11Z" transform="translate(-683.64 -1.89)" style="fill:#fafafa"/><path d="M848.1,512.53l-3.85,8.64,0.89,0.4,3.85-8.65Z" transform="translate(-683.64 -1.89)" style="fill:#fafafa"/><path d="M856.52,516.09l-3.56,8.8,0.9,0.37,3.55-8.8Z" transform="translate(-683.64 -1.89)" style="fill:#fafafa"/><path d="M839.8,508.69l-4.13,8.47,0.88,0.43,4.13-8.46Z" transform="translate(-683.64 -1.89)" style="fill:#fafafa"/><path d="M831.65,504.54l-4.41,8.3,0.86,0.46,4.41-8.3Z" transform="translate(-683.64 -1.89)" style="fill:#fafafa"/></svg>