<svg id="55369813-0ffa-48e7-8efc-6d20f76c60e3" data-name="Layer 1" xmlns="http://www.w3.org/2000/svg" viewBox="0 0 462.21 47.61"><title>EF_R_circletext2</title><path d="M759.52,198.39h-4.7V196h12v2.42h-4.7V210.8h-2.63V198.39Z" transform="translate(-729.44 -195.72)" style="fill:#fff"/><path d="M780.18,196h2.6v6.16h7.07V196h2.61V210.8h-2.61v-6.25h-7.07v6.25h-2.6V196Z" transform="translate(-729.44 -195.72)" style="fill:#fff"/><path d="M806.87,196h11v2.33h-8.39v3.85h7.43v2.33h-7.43v4H818v2.33h-11.1V196Z" transform="translate(-729.44 -195.72)" style="fill:#fff"/><path d="M848.58,196h2.6v12.45H859v2.37h-10.4V196Z" transform="translate(-729.44 -195.72)" style="fill:#fff"/><path d="M872.43,196H875V210.8h-2.6V196Z" transform="translate(-729.44 -195.72)" style="fill:#fff"/><path d="M889.58,196h6.65a5.36,5.36,0,0,1,3.88,1.31,3.32,3.32,0,0,1,1,2.46v0a3.53,3.53,0,0,1-2.12,3.3c1.74,0.59,2.94,1.59,2.94,3.6v0c0,2.65-2.18,4.07-5.49,4.07h-6.86V196Zm6.12,6.25c1.67,0,2.79-.66,2.79-2v0c0-1.17-.93-1.89-2.6-1.89h-3.75v3.94h3.56Zm0.76,6.27c1.78,0,2.86-.7,2.86-2v0c0-1.25-1-2-3-2h-4.13v4.07h4.32Z" transform="translate(-729.44 -195.72)" style="fill:#fff"/><path d="M915.45,196h6.61a6,6,0,0,1,4.28,1.48,4.48,4.48,0,0,1,1.23,3.2v0a4.45,4.45,0,0,1-3.54,4.49l4,5.61H925l-3.64-5.17h-3.26v5.17h-2.6V196Zm6.42,7.35c1.86,0,3-1,3-2.48v0c0-1.59-1.14-2.46-3.07-2.46h-3.79v5h3.81Z" transform="translate(-729.44 -195.72)" style="fill:#fff"/><path d="M946.61,195.87H949l6.52,14.93h-2.75l-1.5-3.58h-7l-1.53,3.58h-2.67Zm3.73,9L947.77,199l-2.54,5.93h5.1Z" transform="translate(-729.44 -195.72)" style="fill:#fff"/><path d="M970.41,198.39h-4.7V196h12v2.42H973V210.8h-2.63V198.39Z" transform="translate(-729.44 -195.72)" style="fill:#fff"/><path d="M989.61,203.43v0a7.75,7.75,0,0,1,15.5,0v0A7.75,7.75,0,0,1,989.61,203.43Zm12.77,0v0a5.08,5.08,0,0,0-5-5.27,5,5,0,0,0-5,5.23v0a5.08,5.08,0,0,0,5,5.27A5,5,0,0,0,1002.38,203.43Z" transform="translate(-729.44 -195.72)" style="fill:#fff"/><path d="M1018.85,196h2.41l7.94,10.25V196h2.56V210.8h-2.18l-8.17-10.55V210.8h-2.56V196Z" transform="translate(-729.44 -195.72)" style="fill:#fff"/><path d="M1046.17,196h11v2.33h-8.39v3.85h7.43v2.33h-7.43v4h8.49v2.33h-11.1V196Z" transform="translate(-729.44 -195.72)" style="fill:#fff"/><path d="M1087.36,208.87l8.75-10.59h-8.47V196h11.86v1.93l-8.75,10.59h8.75v2.31h-12.14v-1.93Z" transform="translate(-729.44 -195.72)" style="fill:#fff"/><path d="M1113.49,196h2.6V210.8h-2.6V196Z" transform="translate(-729.44 -195.72)" style="fill:#fff"/><path d="M1130.64,196h5.85c3.45,0,5.63,2,5.63,5v0c0,3.33-2.67,5.06-5.93,5.06h-2.94v4.77h-2.6V196Zm5.63,7.71c2,0,3.2-1.1,3.2-2.65v0c0-1.74-1.25-2.65-3.2-2.65h-3v5.34h3Z" transform="translate(-729.44 -195.72)" style="fill:#fff"/><path d="M1155.38,196h5.85c3.45,0,5.63,2,5.63,5v0c0,3.33-2.67,5.06-5.93,5.06H1158v4.77h-2.6V196Zm5.63,7.71c2,0,3.2-1.1,3.2-2.65v0c0-1.74-1.25-2.65-3.2-2.65h-3v5.34h3Z" transform="translate(-729.44 -195.72)" style="fill:#fff"/><path d="M729.44,228.25h2.82l3.54,11,3.64-11h2.2l3.64,11,3.54-11h2.73l-5.17,14.93h-2.25l-3.64-10.65-3.64,10.65h-2.24Z" transform="translate(-729.44 -195.72)" style="fill:#fff"/><path d="M765,228.25h2.6v14.83H765V228.25Z" transform="translate(-729.44 -195.72)" style="fill:#fff"/><path d="M785.75,230.67H781v-2.41h12v2.41h-4.7v12.41h-2.63V230.67Z" transform="translate(-729.44 -195.72)" style="fill:#fff"/><path d="M806.42,228.25H809v6.16h7.07v-6.16h2.61v14.83H816.1v-6.25H809v6.25h-2.6V228.25Z" transform="translate(-729.44 -195.72)" style="fill:#fff"/><path d="M850,228.25h11v2.33h-8.39v3.85h7.43v2.33h-7.43v4h8.49v2.33H850V228.25Z" transform="translate(-729.44 -195.72)" style="fill:#fff"/><path d="M874.82,228.25h5.85c3.45,0,5.63,2,5.63,5v0c0,3.33-2.67,5.06-5.93,5.06h-2.94v4.77h-2.6V228.25Zm5.63,7.71c2,0,3.2-1.1,3.2-2.65v0c0-1.74-1.25-2.65-3.2-2.65h-3V236h3Z" transform="translate(-729.44 -195.72)" style="fill:#fff"/><path d="M899.7,228.25h2.6v14.83h-2.6V228.25Z" transform="translate(-729.44 -195.72)" style="fill:#fff"/><path d="M916.2,235.71v0a7.5,7.5,0,0,1,7.65-7.67,7.73,7.73,0,0,1,5.8,2.31L928,232.24a5.9,5.9,0,0,0-4.15-1.84,5,5,0,0,0-4.89,5.23v0a5,5,0,0,0,4.89,5.27,5.81,5.81,0,0,0,4.26-1.93l1.67,1.69a7.65,7.65,0,0,1-6,2.63A7.46,7.46,0,0,1,916.2,235.71Z" transform="translate(-729.44 -195.72)" style="fill:#fff"/><path d="M959,240.73l1.82-1.69a4.84,4.84,0,0,0,3.9,1.95,2.32,2.32,0,0,0,2.56-2.25v0c0-1.46-1.33-2.29-3.41-2.29h-1.21l-0.42-1.63,4-4.26h-6.42v-2.27h9.81v1.95l-4.13,4.24c2.25,0.3,4.36,1.42,4.36,4.17v0c0,2.73-2.12,4.68-5.19,4.68A7,7,0,0,1,959,240.73Z" transform="translate(-729.44 -195.72)" style="fill:#fff"/><path d="M984.78,241.79c-1.12-1.14-1.8-2.69-1.8-5.68v0c0-4.53,2.16-8.07,6.35-8.07a6.72,6.72,0,0,1,4.53,1.65l-1.4,2a4.92,4.92,0,0,0-3.22-1.29c-2.2,0-3.43,2-3.56,4.7a4.72,4.72,0,0,1,3.54-1.48c2.88,0,5.19,1.69,5.19,4.66v0c0,2.94-2.39,5-5.51,5A5.59,5.59,0,0,1,984.78,241.79Zm7-3.39v0c0-1.48-1.19-2.58-3-2.58a2.73,2.73,0,0,0-3,2.6v0a2.77,2.77,0,0,0,3.07,2.67A2.69,2.69,0,0,0,991.82,238.4Z" transform="translate(-729.44 -195.72)" style="fill:#fff"/><path d="M1007.46,235.71v0c0-4.24,2.58-7.67,6.48-7.67s6.44,3.39,6.44,7.62v0c0,4.24-2.58,7.67-6.48,7.67S1007.46,239.94,1007.46,235.71Zm10.23,0v0c0-2.92-1.5-5.32-3.79-5.32s-3.75,2.33-3.75,5.27v0c0,2.92,1.48,5.32,3.79,5.32S1017.69,238.63,1017.69,235.71Z" transform="translate(-729.44 -195.72)" style="fill:#fff"/><path d="M1033.64,231.58v0a3.53,3.53,0,0,1,7.05,0v0A3.53,3.53,0,0,1,1033.64,231.58Zm5.53,0v0a2,2,0,1,0-4,0v0A2,2,0,1,0,1039.16,231.58Z" transform="translate(-729.44 -195.72)" style="fill:#fff"/><path d="M1070.59,240.92l1.57-1.86a6.83,6.83,0,0,0,4.68,1.93c1.61,0,2.63-.74,2.63-1.86v0c0-1.06-.59-1.63-3.35-2.27-3.16-.76-4.93-1.7-4.93-4.43v0c0-2.54,2.12-4.3,5.06-4.3a8.22,8.22,0,0,1,5.38,1.86l-1.4,2a6.73,6.73,0,0,0-4-1.53c-1.53,0-2.42.78-2.42,1.76v0c0,1.14.68,1.65,3.52,2.33,3.13,0.76,4.77,1.88,4.77,4.34v0c0,2.77-2.18,4.43-5.29,4.43A9.13,9.13,0,0,1,1070.59,240.92Z" transform="translate(-729.44 -195.72)" style="fill:#fff"/><path d="M1095.07,235.71v0a7.75,7.75,0,0,1,15.5,0v0A7.75,7.75,0,0,1,1095.07,235.71Zm12.77,0v0a5.08,5.08,0,0,0-5-5.27,5,5,0,0,0-5,5.23v0a5.08,5.08,0,0,0,5,5.27A5,5,0,0,0,1107.84,235.71Z" transform="translate(-729.44 -195.72)" style="fill:#fff"/><path d="M1124.08,236.79v-8.54h2.61v8.43c0,2.75,1.42,4.24,3.75,4.24s3.73-1.4,3.73-4.13v-8.54h2.6v8.41c0,4.43-2.5,6.65-6.37,6.65S1124.08,241.09,1124.08,236.79Z" transform="translate(-729.44 -195.72)" style="fill:#fff"/><path d="M1150.93,228.25h2.41l7.94,10.25V228.25h2.56v14.83h-2.18l-8.17-10.55v10.55h-2.56V228.25Z" transform="translate(-729.44 -195.72)" style="fill:#fff"/><path d="M1178.25,228.25h5.53c4.66,0,7.88,3.2,7.88,7.37v0c0,4.17-3.22,7.41-7.88,7.41h-5.53V228.25Zm5.53,12.45a4.83,4.83,0,0,0,5.15-5v0a4.86,4.86,0,0,0-5.15-5h-2.92v10.08h2.92Z" transform="translate(-729.44 -195.72)" style="fill:#fff"/></svg>